<?xml version="1.0" standalone="no"?>
<!DOCTYPE svg PUBLIC "-//W3C//DTD SVG 20010904//EN"
 "http://www.w3.org/TR/2001/REC-SVG-20010904/DTD/svg10.dtd">
<svg version="1.0" xmlns="http://www.w3.org/2000/svg"
 width="5000.000000pt" height="3333.000000pt" viewBox="0 0 5000.000000 3333.000000"
 preserveAspectRatio="xMidYMid meet">

<g transform="translate(0.000000,3333.000000) scale(0.100000,-0.100000)"
fill="#000000" stroke="none">
<path d="M18405 30122 l-161 -124 248 -492 c157 -311 252 -490 260 -488 27 7
348 155 347 161 0 3 -120 245 -267 537 l-267 531 -160 -125z"/>
<path d="M33013 29028 l-53 -81 1 -81 c1 -167 104 -2555 111 -2561 3 -4 737
-3 1630 2 893 4 1604 9 1581 11 -29 2 -43 8 -43 18 0 10 -12 14 -40 14 -22 0
-40 3 -40 8 0 8 -93 32 -126 32 -11 0 -57 14 -102 30 -46 17 -92 30 -102 30
-11 0 -28 4 -38 9 -9 6 -38 13 -64 16 -27 3 -48 10 -48 16 0 5 -12 9 -27 9
-38 0 -133 23 -133 32 0 5 -18 8 -40 8 -22 0 -40 5 -40 10 0 6 -18 10 -40 10
-22 0 -40 5 -40 10 0 6 -15 10 -34 10 -18 0 -47 7 -62 15 -16 8 -37 15 -46 15
-10 0 -18 5 -18 10 0 6 -22 10 -49 10 -34 0 -55 6 -67 17 -11 12 -41 20 -87
24 -38 3 -72 12 -76 18 -5 7 -33 15 -64 18 -39 4 -57 10 -57 19 0 10 -14 14
-48 14 -27 0 -57 6 -68 15 -10 8 -29 15 -40 15 -12 0 -38 7 -57 15 -20 8 -52
15 -72 15 -19 0 -35 5 -35 10 0 6 -15 10 -34 10 -18 0 -47 7 -62 15 -16 8 -44
15 -61 15 l-33 0 0 -60 c0 -33 -2 -60 -4 -60 -10 0 -418 -41 -457 -46 l-46 -5
-7 143 c-5 79 -8 153 -7 166 1 16 -5 22 -19 22 -11 0 -28 4 -38 9 -9 6 -38 13
-64 16 -27 3 -48 10 -48 16 0 5 -15 9 -32 9 -18 0 -57 9 -86 20 -29 11 -68 20
-87 20 -19 0 -35 5 -35 10 0 6 -18 10 -40 10 -22 0 -40 5 -40 11 0 6 -21 9
-57 8 -41 -2 -59 1 -64 12 -4 8 -24 419 -44 914 -20 495 -40 933 -43 972 l-7
73 -52 -82z m180 -1921 c3 -7 -3 -13 -14 -14 -12 -1 -16 3 -12 13 6 18 19 18
26 1z m2790 -754 c-13 -2 -33 -2 -45 0 -13 2 -3 4 22 4 25 0 35 -2 23 -4z"/>
<path d="M25290 28729 c-134 -101 -298 -183 -585 -290 -356 -132 -475 -186
-614 -276 -109 -71 -178 -137 -321 -308 -195 -235 -240 -267 -692 -490 -354
-175 -465 -244 -523 -323 -48 -66 -59 -121 -52 -266 6 -136 19 -188 122 -511
120 -376 137 -468 140 -757 l3 -216 35 -59 c135 -223 205 -540 177 -808 -31
-299 -128 -564 -251 -685 -66 -65 -82 -93 -109 -192 -28 -102 -39 -237 -30
-342 8 -85 7 -97 -46 -335 -30 -135 -64 -277 -75 -316 -68 -233 -162 -498
-248 -700 l-56 -130 -94 -5 -93 -5 -24 -45 c-13 -25 -24 -38 -24 -30 -1 11 -5
10 -16 -5 -8 -11 -13 -28 -10 -38 3 -14 0 -18 -13 -14 -11 3 -17 -2 -18 -15
-2 -17 1 -18 15 -7 15 11 15 11 4 -1 -7 -8 -23 -15 -35 -15 -16 0 -21 -6 -19
-20 2 -11 0 -17 -4 -12 -7 7 -94 -80 -94 -95 0 -4 -20 -29 -45 -55 -24 -26
-45 -51 -45 -55 0 -4 -20 -27 -44 -52 -24 -25 -41 -48 -37 -52 3 -4 1 -4 -6 0
-12 6 -200 -76 -253 -111 -14 -10 -32 -18 -40 -19 -8 -1 -121 -51 -250 -111
-129 -61 -314 -145 -410 -188 -96 -42 -181 -82 -189 -88 -7 -7 -19 -12 -25
-12 -6 0 -144 -57 -306 -126 -162 -70 -395 -166 -517 -215 -123 -49 -223 -92
-223 -95 0 -5 968 -359 1735 -636 99 -36 615 -222 1148 -414 l967 -349 93 9
c116 12 542 46 752 60 88 6 311 11 496 11 l336 0 239 111 c235 109 253 115
1038 370 440 143 801 261 803 263 6 6 -268 149 -445 231 -492 228 -754 390
-964 595 l-98 95 -68 160 -68 160 -89 26 c-81 24 -91 25 -96 10 -4 -10 -9 2
-14 32 -4 26 -6 50 -3 52 2 2 55 0 118 -5 145 -12 305 -12 440 0 199 18 187
14 264 94 363 377 731 1158 961 2039 24 92 42 167 41 167 -2 0 -19 -24 -38
-52 -43 -65 -111 -138 -127 -138 -6 0 -16 12 -22 28 -28 75 -84 173 -120 210
-84 88 -266 151 -594 206 -394 66 -690 91 -993 83 -325 -8 -483 -40 -762 -155
-74 -30 -153 -57 -175 -59 -82 -9 -216 66 -362 201 -274 255 -485 633 -560
1001 -14 72 -18 136 -18 315 1 206 3 236 28 353 39 184 87 320 177 502 80 163
171 309 266 425 l52 65 -40 43 c-87 95 -148 278 -148 446 0 154 32 254 107
337 154 170 381 196 1092 124 867 -89 976 -97 1181 -93 l145 2 82 -43 c130
-68 262 -202 345 -349 l30 -53 55 52 55 52 35 -54 c70 -111 136 -270 168 -409
l17 -75 -75 -78 c-136 -142 -263 -338 -359 -552 -32 -71 -58 -135 -58 -141 0
-7 39 27 88 75 111 109 191 155 275 156 52 0 61 -3 83 -28 14 -16 24 -41 25
-60 0 -32 0 -32 11 -7 16 40 48 201 48 247 0 30 19 83 71 195 216 465 331 760
354 905 8 50 -18 126 -91 269 -48 94 -191 312 -247 378 l-34 40 -27 -143 c-36
-190 -81 -323 -176 -516 -100 -204 -119 -228 -74 -95 121 363 173 738 138
1005 -10 81 -14 112 -19 135 -9 41 -16 74 -19 85 -1 6 -8 30 -15 55 -14 53
-19 64 -60 150 -17 36 -47 83 -65 105 l-33 39 -86 -12 c-110 -16 -411 -76
-792 -158 -165 -36 -314 -68 -332 -71 l-32 -5 24 70 c36 105 56 222 62 360 3
67 4 122 2 122 -2 -1 -51 -37 -109 -81z m-109 -5325 c128 -86 309 -160 463
-189 203 -39 508 -28 663 23 75 25 84 27 121 14 84 -28 177 -138 212 -250 44
-142 33 -287 -40 -503 -98 -293 -236 -465 -345 -429 -77 26 -140 140 -210 383
-25 87 -51 167 -58 178 -19 31 -71 41 -247 46 l-165 5 -70 -73 c-180 -192
-319 -299 -387 -299 -79 0 -266 78 -393 163 -87 59 -195 172 -230 242 -27 53
-30 70 -30 151 0 86 2 94 43 177 76 153 233 283 415 344 59 20 168 48 198 52
4 1 31 -15 60 -35z m-3196 -1754 c-5 -16 -10 -19 -20 -10 -11 9 -12 16 -2 31
15 23 31 8 22 -21z m-38 -38 c-5 13 0 16 24 16 16 -1 29 -5 29 -10 0 -5 -4 -6
-10 -3 -15 9 -12 -4 5 -21 8 -9 15 -20 15 -25 0 -6 -7 -3 -16 5 -17 18 -28 21
-19 6 9 -14 -18 -12 -34 3 -11 10 -13 10 -7 0 4 -7 2 -13 -3 -13 -6 0 -12 5
-12 10 -1 6 -2 16 -3 23 -4 24 7 30 22 11 12 -15 14 -16 9 -2z m456 -587 c353
-589 733 -990 1124 -1184 307 -153 652 -172 920 -51 205 93 381 279 503 530
l40 84 0 -70 c0 -329 -208 -766 -460 -967 -182 -145 -368 -185 -590 -126 -79
21 -248 97 -315 143 -22 14 -49 32 -59 39 -104 67 -297 235 -365 316 -24 29
-49 50 -56 47 -7 -2 -12 3 -11 11 0 9 -4 18 -11 20 -6 2 -10 -4 -9 -14 2 -10
-4 -24 -13 -31 -9 -8 -10 -11 -3 -7 6 3 12 1 12 -4 0 -6 -5 -11 -11 -11 -5 0
-7 -5 -3 -11 4 -7 -1 -10 -12 -7 -11 2 -19 11 -19 20 0 9 -4 20 -9 25 -5 4 -6
3 -2 -4 18 -31 -13 -8 -59 43 -385 433 -682 989 -845 1583 -22 79 -40 151 -40
159 0 8 42 -68 93 -169 50 -101 141 -265 200 -364z m-389 495 c-6 -6 -10 -3
-10 10 0 13 4 16 10 10 7 -7 7 -13 0 -20z m-99 -1 c3 -3 -6 -5 -19 -5 -14 1
-28 4 -31 7 -3 3 6 5 19 5 14 -1 28 -4 31 -7z"/>
<path d="M25677 22989 c12 -11 85 -29 94 -24 4 3 9 0 11 -6 2 -6 39 -12 88
-14 47 -2 73 -1 57 1 -15 3 -25 9 -23 13 3 4 -7 7 -22 7 -15 -1 -35 2 -46 7
-14 7 -17 6 -11 -5 6 -10 5 -11 -6 0 -7 6 -25 12 -40 12 -15 0 -30 4 -33 9 -3
5 -22 9 -41 8 -19 -1 -32 -4 -28 -8z"/>
<path d="M21965 21660 c-3 -5 -1 -10 4 -10 6 0 11 5 11 10 0 6 -2 10 -4 10 -3
0 -8 -4 -11 -10z"/>
<path d="M37759 27918 c-490 -559 -452 -513 -436 -526 12 -10 62 46 801 889
60 69 73 89 62 98 -10 9 -100 -88 -427 -461z"/>
<path d="M28382 27639 c3 -8 18 -45 33 -84 15 -38 42 -108 60 -155 19 -47 88
-229 155 -405 66 -176 125 -331 131 -344 6 -14 58 -149 116 -300 57 -152 107
-279 110 -284 5 -8 20 11 209 258 196 256 667 868 676 880 4 5 26 33 49 62 39
51 40 52 17 58 -23 5 -176 37 -1053 220 -252 53 -470 98 -484 102 -18 4 -23 3
-19 -8z m405 -110 c186 -39 433 -90 548 -114 452 -94 548 -115 553 -119 4 -5
-40 -64 -271 -364 -53 -70 -123 -161 -155 -202 -277 -365 -461 -599 -465 -593
-3 5 -44 112 -92 238 -48 127 -102 268 -120 315 -18 47 -81 211 -139 365 -59
154 -113 296 -121 315 -31 79 -85 220 -85 225 0 7 -23 11 347 -66z"/>
<path d="M33162 27161 c2 -7 7 -12 11 -12 12 1 9 15 -3 20 -7 2 -11 -2 -8 -8z"/>
<path d="M34008 26933 c7 -3 16 -2 19 1 4 3 -2 6 -13 5 -11 0 -14 -3 -6 -6z"/>
<path d="M25660 26538 c-41 -11 -289 -71 -550 -134 -261 -63 -504 -124 -540
-136 -218 -71 -394 -213 -446 -361 -17 -48 -12 -58 19 -29 29 27 146 84 227
110 210 68 331 82 748 89 l342 6 45 39 c51 45 131 161 173 251 42 88 73 175
64 180 -4 2 -41 -5 -82 -15z"/>
<path d="M17657 25448 c-4 -145 -7 -352 -7 -460 0 -169 -2 -198 -15 -198 -8 0
-15 -7 -15 -15 0 -9 6 -12 15 -9 8 4 15 2 15 -4 0 -7 -136 -11 -391 -11 -215
-1 -388 2 -386 6 14 22 -34 8 -62 -18 -18 -16 -35 -29 -39 -29 -4 0 -22 -13
-40 -28 l-34 -28 201 -168 c124 -104 198 -172 194 -179 -17 -29 -176 -237
-181 -237 -3 0 -117 84 -253 186 l-248 185 -242 -182 c-133 -100 -248 -182
-255 -183 -7 0 -53 53 -103 119 -68 91 -87 123 -78 131 7 6 98 83 202 171
l191 159 -64 48 c-50 37 -73 49 -101 49 -20 0 -181 -1 -358 -2 l-323 -1 0
-535 0 -535 148 0 c81 0 632 -5 1226 -11 593 -5 1081 -8 1083 -5 3 3 23 408
44 900 l39 894 -70 118 c-39 65 -74 122 -79 127 -4 4 -11 -111 -14 -255z"/>
<path d="M26487 25434 c-3 -3 -3 -13 0 -22 4 -13 3 -14 -5 -4 -7 10 -22 1 -66
-40 -93 -87 -157 -199 -216 -384 -25 -78 -63 -254 -57 -261 1 0 29 10 62 23
58 24 182 57 257 67 37 6 37 5 27 -21 -6 -15 -17 -46 -24 -70 -13 -42 -13 -43
16 -57 39 -21 37 -32 -10 -45 -39 -10 -39 -10 -51 -80 -7 -39 -14 -70 -16 -70
-23 0 -161 79 -204 117 -46 40 -51 43 -32 16 63 -89 196 -172 343 -213 40 -11
75 -20 76 -20 2 0 0 18 -3 40 -5 31 -1 53 19 98 34 74 56 160 64 246 l6 69 57
-6 c31 -4 65 -9 76 -13 10 -4 -13 18 -52 47 l-71 54 -6 85 c-8 107 -38 227
-78 307 -30 63 -100 148 -112 137z"/>
<path d="M21963 25282 c-9 -6 -8 -50 7 -192 11 -102 20 -196 20 -210 0 -14 3
-20 8 -14 11 18 89 54 97 46 5 -4 5 -1 1 6 -4 6 -1 19 7 26 8 8 17 37 21 63
12 91 54 114 142 77 29 -12 43 -13 56 -5 23 14 31 14 23 -1 -4 -7 0 -6 7 2 29
32 81 74 73 60 -6 -12 -5 -13 5 -3 11 10 10 16 -5 33 -26 28 -147 86 -220 105
-62 16 -221 20 -242 7z"/>
<path d="M24376 25261 c-4 -5 -2 -12 3 -15 5 -4 12 -2 15 3 4 5 2 12 -3 15 -5
4 -12 2 -15 -3z"/>
<path d="M25195 25250 c-3 -11 -12 -21 -18 -21 -35 -5 -53 -3 -60 6 -4 6 -14
2 -23 -10 -16 -20 -16 -20 -11 2 5 22 4 22 -25 7 -33 -17 -114 -16 -111 2 1 7
-6 10 -18 7 -13 -4 -18 -11 -14 -21 5 -14 4 -14 -12 0 -30 25 -41 29 -49 17
-5 -8 -2 -10 7 -5 8 4 6 1 -3 -7 -10 -8 -14 -18 -10 -23 4 -4 -1 -2 -10 5 -20
15 -24 26 -6 15 6 -4 8 -3 5 4 -4 5 -17 8 -29 4 -14 -3 -19 -1 -14 6 5 9 1 9
-17 3 -14 -6 -28 -7 -32 -3 -3 4 -23 7 -44 7 -30 0 -38 -3 -34 -15 3 -11 1
-10 -10 3 -8 10 -17 14 -18 8 -3 -6 -59 -11 -140 -12 l-137 -1 -16 -61 c-19
-70 -36 -170 -30 -176 2 -2 30 8 61 22 124 55 304 94 471 103 l103 6 -19 -39
c-11 -21 -26 -57 -33 -81 -11 -39 -11 -44 9 -65 24 -25 20 -37 -10 -37 -19 0
-23 -26 -18 -137 l2 -52 -94 25 c-118 33 -240 83 -324 134 -93 56 -70 32 38
-41 117 -78 238 -138 366 -183 108 -38 251 -71 261 -61 3 4 9 41 12 83 4 45
18 108 34 152 17 47 31 113 38 178 10 97 12 103 31 98 56 -13 118 -18 113 -9
-4 6 -38 34 -76 63 -62 47 -69 55 -59 73 8 16 8 19 -5 14 -11 -4 -13 0 -10 14
7 25 -4 25 -12 -1z m-500 -19 c3 -5 2 -12 -3 -15 -5 -3 -9 1 -9 9 0 17 3 19
12 6z m55 -6 c0 -2 -6 -5 -13 -8 -8 -3 -14 1 -14 8 0 7 6 11 14 8 7 -3 13 -6
13 -8z m24 -11 c3 -8 2 -12 -4 -9 -6 3 -10 10 -10 16 0 14 7 11 14 -7z"/>
<path d="M25147 25239 c7 -7 15 -10 18 -7 3 3 -2 9 -12 12 -14 6 -15 5 -6 -5z"/>
<path d="M20525 24980 c-3 -5 80 -183 184 -395 148 -299 194 -383 206 -379 8
3 15 8 15 10 0 13 -384 774 -391 774 -4 0 -11 -4 -14 -10z"/>
<path d="M22538 24943 c-115 -119 -174 -252 -185 -414 -7 -112 -1 -136 32
-135 15 1 30 8 35 16 6 8 10 11 10 5 0 -5 7 1 16 13 8 12 19 20 23 17 5 -2 13
7 19 20 7 14 17 25 24 25 22 1 65 44 72 72 8 33 51 58 100 58 25 0 38 6 46 20
6 11 15 18 20 15 13 -8 5 21 -25 95 -40 97 -117 240 -130 240 -6 0 -32 -21
-57 -47z"/>
<path d="M16876 24792 c-3 -5 1 -9 9 -9 8 0 12 4 9 9 -3 4 -7 8 -9 8 -2 0 -6
-4 -9 -8z"/>
<path d="M16917 24794 c-13 -13 -7 -23 13 -21 11 1 19 6 17 11 -4 13 -21 18
-30 10z"/>
<path d="M15280 24780 c0 -6 100 -10 280 -10 180 0 280 4 280 10 0 6 -100 10
-280 10 -180 0 -280 -4 -280 -10z"/>
<path d="M15887 24777 c3 -5 16 -7 29 -4 13 2 25 -1 28 -7 2 -6 5 -3 5 6 1 13
-7 16 -33 15 -19 -1 -32 -6 -29 -10z"/>
<path d="M16960 24780 c0 -6 113 -10 319 -10 203 0 322 4 326 10 4 7 -105 10
-319 10 -211 0 -326 -4 -326 -10z"/>
<path d="M42995 24609 c-159 -51 -251 -184 -249 -359 0 -74 4 -95 31 -150 112
-241 433 -290 612 -95 68 76 95 146 95 255 0 71 -4 94 -27 143 -53 116 -129
182 -242 212 -78 20 -146 18 -220 -6z"/>
<path d="M31248 23952 c-147 -87 -268 -160 -268 -165 0 -6 187 -365 196 -376
1 -2 115 65 253 149 l251 152 -13 31 c-8 18 -42 107 -78 199 -35 93 -66 167
-69 167 -3 -1 -125 -71 -272 -157z"/>
<path d="M25377 23881 c-17 -6 -17 -8 3 -34 41 -51 100 -84 168 -90 36 -4 108
-24 170 -48 206 -80 316 -101 387 -76 112 40 265 128 313 180 l24 25 -39 -9
c-72 -16 -202 -9 -455 26 -201 28 -284 35 -403 34 -82 0 -158 -4 -168 -8z"/>
<path d="M16702 22857 c-33 -63 -84 -125 -124 -151 -33 -21 -151 -63 -233 -81
-109 -25 -105 -22 -105 -63 0 -20 3 -53 6 -73 l6 -37 52 24 c49 22 191 52 201
42 3 -3 43 -124 90 -269 97 -306 157 -477 150 -434 -29 186 -40 850 -17 1009
7 48 12 90 10 92 -2 1 -18 -25 -36 -59z"/>
<path d="M36550 22755 c-3473 -24 -6423 -45 -6555 -47 -215 -4 -247 -7 -307
-26 -138 -46 -278 -167 -341 -295 -61 -124 -65 -185 -47 -655 21 -547 210
-5974 210 -6032 0 -74 -1 -74 -107 31 -118 117 -214 275 -279 459 -12 36 -41
107 -64 158 -83 190 -148 445 -250 977 -79 415 -114 580 -151 711 -31 110 -67
204 -78 204 -8 0 -126 -223 -123 -232 1 -5 -3 -8 -10 -8 -6 0 -9 -3 -6 -6 4
-3 -3 -15 -14 -26 -11 -11 -17 -26 -14 -34 3 -8 2 -13 -3 -10 -10 7 -25 -23
-22 -43 1 -7 -2 -10 -7 -7 -6 3 -13 -1 -16 -10 -4 -10 -2 -13 7 -9 6 4 3 -1
-8 -10 -11 -9 -19 -21 -17 -26 4 -16 -121 -218 -132 -212 -5 3 -6 2 -3 -4 16
-25 -362 -564 -562 -802 l-28 -34 -11 34 c-6 19 -36 117 -68 219 -31 102 -60
189 -65 194 -5 6 -9 -88 -9 -220 0 -158 -5 -259 -15 -320 -13 -77 -133 -1227
-166 -1584 -6 -69 -15 -129 -19 -133 -4 -5 -79 8 -166 27 -88 20 -169 39 -181
41 -23 5 -23 5 -23 -125 l0 -130 -25 0 c-24 0 -25 -2 -25 -70 0 -40 -4 -70
-10 -70 -6 0 -9 -36 -8 -92 l2 -93 6 85 6 85 2 -100 c1 -70 -1 -96 -8 -85 -8
11 -10 5 -8 -25 2 -29 7 -40 19 -39 9 1 16 -5 16 -12 0 -9 -5 -10 -18 -3 -22
11 -37 -8 -19 -24 10 -9 11 -9 5 2 -6 10 -4 12 4 7 7 -5 10 -15 7 -25 -12 -32
35 36 161 236 73 116 130 197 134 190 4 -7 14 -48 24 -92 59 -269 214 -740
372 -1125 132 -323 413 -915 451 -950 14 -13 15 -13 5 0 -10 13 15 14 214 10
144 -3 231 -1 239 5 9 7 13 78 17 260 6 280 20 404 73 615 19 74 37 145 39
157 3 12 21 68 39 125 32 96 72 244 82 306 16 91 104 365 176 542 108 267 234
496 385 697 96 129 242 288 254 276 4 -4 11 -117 14 -250 l8 -242 -60 -68
c-33 -37 -88 -104 -122 -148 -34 -44 -68 -87 -74 -95 -29 -36 -178 -261 -184
-277 -4 -10 -13 -24 -20 -31 -7 -8 -11 -18 -8 -23 4 -5 2 -9 -4 -9 -6 0 -15
-10 -21 -22 -10 -21 -10 -22 3 -5 10 12 17 15 22 7 5 -7 11 -8 19 -1 7 6 21 8
32 5 12 -3 27 3 39 16 19 21 19 21 -3 27 -23 6 -29 18 -13 28 6 3 14 -2 19
-12 9 -14 16 -10 53 31 24 27 43 54 41 61 -1 8 3 17 9 21 8 5 10 2 5 -7 -4 -8
9 4 30 26 20 22 80 86 133 143 53 56 98 102 102 102 3 0 10 -107 16 -237 12
-270 24 -324 93 -431 79 -123 181 -202 317 -248 l78 -26 6682 1 c5904 2 6689
4 6740 17 200 52 362 212 419 414 22 78 212 7851 195 7975 -31 228 -222 432
-450 481 -83 17 509 20 -7071 -31z m7084 -10 c180 -47 336 -201 390 -384 11
-39 16 -96 16 -200 0 -364 -180 -7721 -191 -7775 -42 -224 -209 -393 -435
-441 -105 -22 -13273 -22 -13379 0 -242 51 -422 254 -440 495 -2 30 -6 177
-10 325 -3 149 -8 276 -11 284 -5 16 -230 6430 -240 6848 -7 317 -4 348 46
458 57 126 185 241 318 285 61 20 265 46 281 35 5 -3 2735 13 6067 35 5999 40
6425 42 7154 48 312 2 385 0 434 -13z m-14517 -8327 c-3 -7 -5 -2 -5 12 0 14
2 19 5 13 2 -7 2 -19 0 -25z m-27 7 c0 -8 -4 -15 -10 -15 -5 0 -7 7 -4 15 4 8
8 15 10 15 2 0 4 -7 4 -15z"/>
<path d="M7937 21978 c-4 -51 -16 -334 -28 -628 -12 -294 -25 -551 -30 -570
-8 -33 -13 -37 -56 -47 -61 -14 -306 -80 -347 -93 -17 -5 -58 -17 -91 -26 -79
-23 -115 -41 -115 -59 0 -33 -38 -55 -93 -55 -29 0 -59 -6 -66 -12 -11 -10
-13 -10 -7 0 12 20 -23 14 -57 -10 l-32 -22 19 22 c17 19 17 22 3 22 -10 0
-17 -6 -17 -12 0 -10 -2 -10 -9 0 -4 8 -11 13 -15 13 -3 -1 -8 0 -11 0 -14 4
-63 3 -59 0 2 -2 -4 -10 -14 -17 -9 -7 -13 -16 -8 -21 5 -4 11 -2 13 5 6 16
20 16 20 -1 0 -17 -37 -20 -43 -3 -5 14 -23 12 -124 -14 -25 -6 -64 -16 -87
-22 -24 -6 -43 -14 -43 -18 0 -5 -19 -10 -42 -13 -75 -10 -202 -38 -233 -52
-16 -7 -41 -16 -55 -20 -58 -15 -240 -65 -305 -83 -38 -11 -91 -23 -117 -27
-27 -4 -48 -11 -48 -16 0 -5 -18 -9 -40 -9 -22 0 -40 -4 -40 -8 0 -11 833 -22
1604 -22 l581 0 38 900 37 900 -36 55 c-20 30 -38 55 -39 55 -1 0 -5 -42 -8
-92z m-941 -1500 c10 -12 13 -18 7 -14 -8 4 -13 2 -13 -6 0 -10 -2 -10 -9 1
-5 7 -15 10 -22 7 -8 -4 -6 -1 4 7 14 11 15 16 5 20 -7 3 -8 6 -2 6 6 1 19 -9
30 -21z"/>
<path d="M19010 21945 c-172 -54 -230 -299 -103 -430 81 -84 208 -105 315 -52
93 46 138 122 138 235 0 186 -166 304 -350 247z"/>
<path d="M17918 19653 c-8 -10 -13 -28 -12 -41 1 -16 -2 -19 -10 -13 -8 7 -12
4 -13 -9 -1 -13 3 -17 13 -13 10 4 12 0 8 -11 -3 -9 -11 -13 -18 -9 -6 3 -2
-3 8 -15 18 -20 15 -27 -9 -22 -5 1 -1 -8 9 -19 18 -20 19 -31 7 -239 -6 -119
-14 -271 -16 -336 -3 -66 -10 -125 -16 -132 -5 -7 -10 -70 -10 -146 0 -73 -4
-218 -8 -323 -4 -104 -4 -197 1 -207 5 -11 2 -18 -9 -22 -14 -6 -14 -8 1 -25
9 -9 14 -20 12 -22 -3 -2 -5 -42 -6 -89 -2 -61 1 -84 10 -82 6 1 9 -1 6 -6 -9
-15 185 -243 279 -326 91 -80 252 -193 262 -183 3 3 -32 98 -76 212 -68 172
-184 501 -196 555 -2 8 -15 54 -29 103 -69 236 -156 734 -176 1008 -11 151 -8
328 6 397 7 36 4 40 -18 15z"/>
<path d="M16531 19204 c-25 -25 -51 -49 -57 -52 -7 -4 -14 -27 -18 -51 -5 -37
-4 -42 9 -31 8 7 15 9 15 4 0 -5 15 18 33 51 18 33 43 75 55 93 33 45 18 40
-37 -14z m-41 -84 c-7 -4 -10 -12 -7 -17 3 -5 0 -10 -8 -10 -10 0 -11 5 -5 17
5 10 6 20 2 24 -3 4 2 4 12 0 13 -5 14 -9 6 -14z"/>
<path d="M16430 19058 c0 -12 7 -18 23 -17 15 0 17 2 7 6 -8 3 -18 11 -22 17
-5 7 -8 4 -8 -6z"/>
<path d="M12048 18371 l-97 -47 220 -400 220 -399 -31 -97 c-40 -120 -102
-228 -182 -314 l-62 -66 -146 4 c-130 4 -155 8 -241 37 -53 18 -109 40 -123
49 -24 15 -51 77 -185 422 -86 223 -160 413 -164 422 -5 15 -18 11 -107 -30
-96 -45 -101 -48 -111 -87 -33 -121 -50 -252 -56 -431 -8 -254 13 -424 74
-619 24 -75 31 -85 107 -161 177 -176 375 -273 601 -292 l88 -7 72 -135 c81
-152 109 -201 120 -203 4 -1 17 30 29 69 33 101 73 170 141 240 110 111 290
193 472 214 102 11 157 4 225 -31 l40 -20 -7 20 c-3 12 -33 85 -65 163 -43
104 -56 146 -48 155 7 9 7 18 -3 31 -11 14 -11 15 1 5 19 -17 30 -16 30 2 0 9
7 18 16 22 8 3 13 12 10 19 -3 8 0 13 7 11 17 -3 93 155 119 248 19 69 22 106
22 270 1 190 1 190 -27 240 -107 191 -336 426 -574 586 -65 44 -274 160 -284
158 -2 0 -48 -22 -101 -48z m715 -1568 c4 -4 -5 -19 -20 -35 -20 -21 -29 -25
-40 -16 -11 9 -12 7 -6 -7 5 -15 3 -17 -11 -12 -10 4 -15 3 -11 -3 3 -5 -7
-12 -22 -16 -47 -10 -53 -13 -49 -26 1 -7 1 -10 -1 -5 -3 4 -13 7 -24 7 -10 0
-19 5 -19 10 0 6 5 10 12 10 6 0 20 8 30 17 16 14 23 15 38 5 16 -10 18 -9 14
3 -4 8 -1 15 6 15 6 0 8 5 5 10 -3 6 3 10 14 10 11 0 23 -4 26 -10 4 -6 11 -5
19 3 8 6 12 15 9 20 -10 17 16 35 30 20z m-222 -138 c5 4 9 2 9 -3 0 -13 -47
-35 -59 -28 -7 4 -11 -1 -11 -12 0 -18 -18 -21 -72 -13 -14 2 -8 21 6 21 7 0
19 7 27 16 7 8 21 13 31 11 10 -3 16 -1 13 3 -3 5 -1 11 5 15 9 6 14 -7 11
-27 -1 -11 17 -10 23 1 4 5 1 11 -6 13 -7 3 -8 9 -3 19 8 12 10 11 13 -4 2 -9
8 -15 13 -12z m-113 -67 c7 -1 11 -6 9 -12 -2 -6 -11 -10 -19 -8 -9 1 -21 -5
-28 -13 -10 -12 -16 -13 -28 -3 -13 10 -14 10 -8 1 4 -8 2 -13 -4 -13 -6 0 -8
-5 -5 -10 4 -6 3 -10 -2 -9 -4 1 -10 1 -13 0 -3 -2 -33 -3 -67 -3 -37 -1 -61
-6 -60 -12 1 -6 -8 -12 -20 -14 -13 -2 -23 -9 -23 -17 0 -16 -38 -42 -75 -51
-22 -6 -26 -4 -20 7 5 8 0 7 -11 -3 -16 -14 -23 -15 -34 -5 -9 9 -11 9 -6 0 7
-12 -31 -39 -41 -29 -4 3 -11 2 -17 -3 -18 -13 -56 -20 -56 -9 0 5 -5 6 -12 2
-6 -4 -8 -3 -5 4 4 5 17 8 29 4 14 -3 19 -1 14 6 -4 7 1 10 15 7 16 -3 19 -1
14 13 -5 14 -4 15 6 5 15 -15 53 -18 44 -3 -3 5 15 18 39 30 25 11 50 28 55
38 10 16 10 16 11 -2 0 -18 1 -18 19 -2 11 10 26 18 34 20 8 1 22 9 31 19 10
9 28 17 40 17 13 0 33 9 46 20 28 25 40 25 41 3 1 -18 2 -16 14 24 3 9 16 11
42 7 21 -3 44 -6 51 -6z m-151 -92 c4 -5 3 -6 -3 -3 -6 4 -20 0 -30 -8 -10 -8
-23 -14 -29 -15 -5 0 -3 5 5 10 11 7 11 10 2 10 -7 0 -11 4 -8 8 6 11 52 9 63
-2z m-406 -123 c13 -17 13 -17 -6 -3 -11 8 -22 16 -24 17 -2 2 0 3 6 3 6 0 17
-8 24 -17z"/>
<path d="M12365 16590 c-4 -6 1 -7 12 -3 16 6 17 5 3 -13 -14 -18 -14 -18 2
-5 10 7 15 17 12 22 -7 12 -21 11 -29 -1z"/>
<path d="M12090 16460 c-13 -8 -12 -10 3 -10 9 0 17 5 17 10 0 12 -1 12 -20 0z"/>
<path d="M17820 18039 c0 -5 5 -7 10 -4 6 3 10 8 10 11 0 2 -4 4 -10 4 -5 0
-10 -5 -10 -11z"/>
<path d="M17820 18000 c0 -5 5 -10 11 -10 5 0 7 5 4 10 -3 6 -8 10 -11 10 -2
0 -4 -4 -4 -10z"/>
<path d="M17134 17843 c11 -41 36 -186 51 -293 26 -201 35 -340 35 -588 1
-133 5 -242 9 -242 5 0 11 -8 14 -17 2 -10 8 -27 11 -38 4 -11 -1 -5 -12 14
-23 41 -30 33 -29 -35 l0 -51 55 -2 c31 0 61 -6 66 -12 8 -7 -2 -9 -31 -8 -23
2 -45 0 -49 -3 -14 -14 36 -45 80 -50 77 -9 86 -3 86 53 0 27 -4 49 -10 49 -5
0 -10 5 -10 11 0 5 4 8 9 4 9 -5 8 32 -4 205 -13 176 -107 623 -155 735 -11
25 -19 46 -19 48 1 9 -92 237 -98 237 -2 0 -2 -8 1 -17z m136 -1004 c0 -5 4
-7 10 -4 6 4 7 -1 3 -11 -4 -11 -8 -13 -11 -6 -2 7 -8 12 -13 12 -6 0 -7 -4
-4 -10 3 -5 1 -10 -4 -10 -12 0 -15 23 -4 33 10 10 23 8 23 -4z m-20 -93 c0
-3 -4 -8 -10 -11 -5 -3 -10 -1 -10 4 0 6 5 11 10 11 6 0 10 -2 10 -4z m146
-82 c1 -9 0 -13 -4 -10 -3 4 -7 14 -8 22 -1 9 0 13 4 10 3 -4 7 -14 8 -22z
m-9 -96 c-3 -8 -6 -5 -6 6 -1 11 2 17 5 13 3 -3 4 -12 1 -19z"/>
<path d="M7865 17710 c-4 -7 -3 -16 1 -20 5 -5 173 -95 373 -200 276 -145 366
-188 372 -178 4 7 5 16 1 19 -6 6 -712 378 -733 387 -4 2 -10 -2 -14 -8z"/>
<path d="M21080 16663 l0 -600 818 -6 c1640 -14 3123 -64 4680 -158 189 -12
345 -19 347 -17 4 4 76 1071 72 1074 -4 4 -590 62 -882 88 -1434 128 -2871
197 -4377 213 l-658 6 0 -600z m915 347 c298 -11 335 -19 404 -88 65 -65 77
-110 73 -287 -4 -183 -20 -244 -82 -306 -71 -71 -108 -78 -411 -71 l-126 2
-29 85 c-32 96 -44 94 -44 -10 l0 -70 -105 3 -105 3 1 132 c0 209 15 593 23
606 9 13 64 13 401 1z m1025 -31 c221 -7 390 -16 398 -22 13 -10 15 -58 6
-158 l-7 -66 -98 -31 c-54 -18 -101 -32 -104 -32 -3 0 -5 24 -5 53 l0 54 -97
6 c-54 4 -153 7 -220 7 l-123 0 0 -50 0 -50 68 0 c38 0 117 -3 177 -7 l108 -6
-7 -75 c-3 -42 -7 -76 -9 -76 -1 -1 -67 1 -146 4 l-144 5 -21 60 -21 60 -6
-65 c-4 -36 -7 -86 -8 -111 l-1 -47 288 -6 c158 -4 303 -9 322 -12 l35 -5 -3
-94 -3 -95 -102 0 c-258 0 -732 22 -745 34 -10 10 -10 79 -1 362 6 203 15 354
21 362 13 15 -18 15 448 1z m1082 -35 c185 -5 261 -10 268 -19 6 -8 8 -44 4
-97 l-7 -85 -96 -31 c-54 -18 -100 -32 -104 -32 -4 0 -7 20 -7 44 l0 44 -52 6
c-29 3 -124 7 -211 8 -128 1 -160 -1 -168 -13 -12 -20 -11 -45 4 -57 6 -6 130
-31 273 -55 144 -25 276 -52 293 -61 55 -29 71 -68 71 -176 0 -114 -23 -172
-80 -205 -32 -18 -51 -20 -220 -19 -102 1 -276 5 -387 9 l-203 7 0 99 0 99
248 -7 c136 -5 279 -8 317 -8 l70 0 0 45 0 45 -262 41 c-274 43 -307 53 -347
107 -16 22 -20 42 -20 100 0 98 10 142 39 173 41 44 87 55 210 49 61 -2 226
-8 367 -11z m585 -116 c-4 -57 -10 -228 -13 -381 -6 -236 -9 -277 -21 -273 -8
4 -58 6 -110 6 l-96 0 6 158 c4 86 10 255 13 375 l7 217 110 0 110 0 -6 -102z
m966 63 c4 -4 6 -50 5 -101 l-3 -93 -83 -28 c-46 -16 -92 -31 -103 -34 -17 -6
-19 -1 -19 38 l0 44 -197 5 c-109 3 -210 1 -224 -4 -39 -13 -51 -51 -56 -173
-5 -121 4 -151 47 -171 14 -7 111 -15 223 -19 l197 -7 0 101 0 101 83 0 c135
0 127 9 127 -139 0 -69 -3 -156 -7 -193 l-6 -68 -146 0 c-264 1 -522 17 -570
34 -69 25 -111 63 -139 125 -25 54 -26 63 -24 211 4 239 39 323 155 370 50 20
63 20 392 15 187 -4 344 -10 348 -14z m479 -17 c6 -4 72 -134 148 -289 76
-155 143 -286 150 -290 6 -4 16 -3 20 1 5 5 12 122 15 259 3 138 8 265 11 283
l5 32 82 0 c45 0 88 -4 96 -9 12 -8 12 -64 2 -372 -6 -199 -14 -365 -17 -368
-6 -6 -321 -2 -350 5 -15 4 -58 79 -168 295 -112 220 -152 289 -165 287 -14
-3 -17 -36 -25 -286 l-9 -282 -98 0 c-96 0 -99 1 -99 23 0 90 22 705 26 716 4
12 35 13 185 8 100 -4 185 -10 191 -13z"/>
<path d="M21796 16759 c-3 -34 -6 -115 -6 -180 l0 -119 138 -2 c267 -5 279 -5
301 21 37 42 43 274 8 308 -22 22 -113 32 -293 32 l-141 1 -7 -61z"/>
<path d="M14640 16989 c0 -17 23 -69 31 -69 5 0 9 3 9 8 0 8 -40 70 -40 61z"/>
<path d="M17774 16883 c3 -49 13 -221 21 -383 24 -497 16 -435 115 -855 156
-660 230 -1112 230 -1410 0 -91 3 -115 14 -115 7 0 16 -9 19 -21 4 -16 0 -23
-14 -26 -16 -5 -18 -8 -7 -14 10 -7 10 -9 1 -9 -9 0 -13 -15 -12 -42 0 -26 3
-36 7 -26 5 12 11 15 22 8 11 -7 9 -14 -14 -36 -23 -24 -27 -36 -25 -74 1 -25
-1 -58 -5 -73 -6 -20 -4 -33 8 -46 9 -10 13 -21 9 -24 -3 -4 1 -7 11 -7 9 0
15 -4 12 -9 -3 -5 -15 -7 -25 -4 -10 3 -22 0 -25 -6 -4 -6 -2 -9 6 -6 9 4 13
-6 12 -35 -1 -22 3 -40 8 -40 6 0 8 11 6 25 -6 29 7 44 14 17 6 -23 -11 -84
-21 -77 -5 3 -7 -4 -4 -15 3 -11 0 -20 -6 -20 -6 0 -8 -7 -4 -17 4 -11 3 -14
-5 -9 -8 5 -10 2 -6 -8 8 -22 -102 -242 -185 -366 -118 -179 -318 -402 -526
-588 -44 -40 -75 -72 -68 -72 31 0 471 431 653 640 249 285 509 680 804 1220
128 233 411 797 522 1037 l79 173 33 -38 c76 -86 79 -95 86 -242 8 -163 39
-544 66 -808 16 -162 24 -204 47 -255 153 -348 599 -778 1270 -1225 156 -105
355 -230 438 -277 28 -16 61 -35 75 -44 l25 -16 -25 32 c-14 17 -56 69 -93
115 -119 146 -196 268 -311 495 -93 184 -193 423 -256 613 -46 138 -130 454
-130 488 0 21 70 122 85 122 7 0 49 25 95 56 147 98 345 187 571 257 228 71
412 109 787 162 255 37 317 48 222 40 -78 -6 -421 12 -570 31 -402 50 -598
105 -1005 281 -145 62 -489 244 -595 314 -227 151 -472 370 -620 554 -41 51
-160 152 -473 403 -230 184 -419 333 -421 331 -2 -2 43 -148 99 -324 56 -176
101 -321 100 -323 -1 -1 -126 71 -277 161 -151 90 -281 167 -289 170 -8 4 -30
17 -49 28 -19 12 -139 84 -267 160 -127 76 -234 139 -238 139 -5 0 -5 -39 -1
-87z m437 -2930 c-12 -20 -14 -14 -5 12 4 9 9 14 11 11 3 -2 0 -13 -6 -23z
m-24 -9 c-3 -3 -12 -4 -19 -1 -8 3 -5 6 6 6 11 1 17 -2 13 -5z m20 -28 c0 -8
-6 -12 -15 -9 -11 5 -11 7 0 14 7 5 13 9 14 9 0 0 1 -6 1 -14z m-53 -12 c3 -8
2 -12 -4 -9 -6 3 -10 10 -10 16 0 14 7 11 14 -7z m16 -39 c9 5 11 4 6 -3 -4
-7 -2 -12 5 -12 7 0 9 -3 5 -7 -4 -5 -11 -8 -14 -7 -4 1 -11 -5 -17 -13 -7
-10 -10 -4 -11 22 0 20 3 30 7 24 4 -6 12 -8 19 -4z m17 -127 c-3 -8 -6 -5 -6
6 -1 11 2 17 5 13 3 -3 4 -12 1 -19z"/>
<path d="M17228 16568 c-7 -18 9 -38 31 -38 13 0 13 2 -1 13 -9 6 -18 19 -20
26 -4 13 -5 12 -10 -1z"/>
<path d="M17201 16554 c0 -11 3 -14 6 -6 3 7 2 16 -1 19 -3 4 -6 -2 -5 -13z"/>
<path d="M17403 16498 c-8 -13 -9 -18 -12 -38 0 -5 -5 -10 -10 -10 -5 0 -7 9
-4 20 3 11 0 20 -6 20 -6 0 -10 -5 -8 -12 2 -12 0 -13 -76 -23 -27 -4 -46 -9
-43 -12 5 -5 59 -13 109 -16 9 -1 17 -5 17 -10 0 -19 46 50 47 71 2 25 -2 28
-14 10z"/>
<path d="M12605 16463 c-168 -35 -381 -159 -455 -263 l-21 -30 24 -42 c23 -39
106 -194 247 -463 56 -106 70 -127 70 -106 0 7 4 10 9 7 5 -4 7 4 3 16 -4 18
-6 19 -11 5 -6 -16 -7 -16 -17 1 -10 15 -8 18 14 20 14 1 27 4 30 6 2 2 -21
51 -51 108 -30 57 -95 183 -146 280 l-92 177 58 46 c115 91 431 221 462 190 5
-6 62 -140 126 -300 64 -159 120 -296 124 -304 7 -11 11 -9 23 8 8 11 18 18
21 14 4 -3 2 -12 -5 -20 -8 -11 -7 -12 6 -7 9 3 16 9 16 13 -1 9 -26 41 -31
38 -2 -1 -1 2 2 6 8 10 0 47 -10 47 -4 0 -8 6 -8 13 0 6 -47 127 -105 267 -58
140 -108 263 -111 273 -8 22 -71 22 -172 0z m389 -629 c3 -8 2 -12 -4 -9 -6 3
-10 10 -10 16 0 14 7 11 14 -7z"/>
<path d="M17400 16435 c-11 -13 -10 -14 4 -9 9 3 16 10 16 15 0 13 -6 11 -20
-6z"/>
<path d="M17397 16384 c-3 -3 -3 -12 -1 -19 3 -8 -2 -12 -13 -12 -11 1 -18 -5
-18 -18 0 -14 7 -20 22 -21 12 -1 20 2 17 7 -2 4 -10 6 -18 3 -7 -3 -13 2 -13
10 0 11 7 14 22 12 15 -3 21 1 22 15 2 19 -10 33 -20 23z"/>
<path d="M12494 15589 c-4 -7 -3 -9 4 -5 5 3 13 0 15 -6 4 -9 6 -10 6 -1 1 17
-16 25 -25 12z"/>
<path d="M24180 15231 c0 -16 14 -20 28 -8 13 10 14 9 8 -2 -6 -10 -4 -12 10
-7 11 3 40 6 67 8 78 3 53 16 -33 16 -44 0 -80 -3 -80 -7z"/>
<path d="M24360 15230 c-8 -5 -10 -10 -5 -10 6 0 17 5 25 10 8 5 11 10 5 10
-5 0 -17 -5 -25 -10z"/>
<path d="M24433 15233 c15 -2 39 -2 55 0 15 2 2 4 -28 4 -30 0 -43 -2 -27 -4z"/>
<path d="M24085 15221 c-3 -5 0 -13 6 -17 8 -5 9 -3 4 6 -6 10 -4 12 9 7 10
-4 15 -3 11 3 -8 13 -22 13 -30 1z"/>
<path d="M26860 15031 c0 -10 19 -25 25 -20 1 2 -3 10 -11 17 -8 7 -14 8 -14
3z"/>
<path d="M29006 14324 c-5 -14 -4 -15 9 -4 17 14 19 20 6 20 -5 0 -12 -7 -15
-16z"/>
<path d="M29057 14325 c-4 -8 -3 -16 1 -19 4 -3 9 4 9 15 2 23 -3 25 -10 4z"/>
<path d="M9095 13655 c-138 -31 -230 -81 -321 -177 -100 -104 -155 -212 -173
-341 -6 -41 5 -495 34 -1362 51 -1523 50 -1499 71 -1573 46 -160 173 -316 314
-385 157 -77 40 -71 1533 -75 l1337 -3 0 -72 c0 -40 34 -1546 75 -3347 71
-3098 76 -3280 95 -3353 30 -121 82 -210 175 -303 87 -88 167 -138 280 -176
l70 -23 2734 -3 2733 -2 -5 -23 c-3 -12 -22 -123 -41 -247 -61 -385 -101 -751
-127 -1160 -13 -204 -16 -895 -5 -978 l8 -52 1537 0 1537 0 17 97 c38 218 100
518 109 524 5 3 6 13 3 21 -4 9 -1 19 4 23 6 3 8 11 5 17 -4 6 1 17 11 25 11
7 13 13 7 13 -18 0 -14 28 6 39 9 6 11 11 5 11 -15 0 -17 26 -3 35 6 3 7 -1 4
-12 -5 -16 -4 -16 6 1 10 14 10 20 0 26 -9 5 -9 17 0 49 13 49 22 54 14 8 -4
-29 -4 -30 6 -8 23 52 17 7 -26 -188 -24 -111 -62 -300 -84 -419 -22 -120 -43
-227 -45 -239 l-5 -23 234 0 235 0 11 37 c6 21 327 1189 714 2596 387 1407
707 2562 712 2567 17 17 238 68 340 80 119 13 226 1 294 -33 l45 -22 61 -205
c34 -113 128 -423 209 -690 436 -1439 816 -2923 1031 -4027 l59 -303 268 0
267 0 -5 23 c-2 12 -14 76 -26 142 -17 98 -88 463 -103 527 -2 11 2 16 14 15
20 -1 34 -53 18 -63 -5 -3 -2 -11 6 -17 14 -11 78 -312 117 -549 l13 -78 1672
0 1671 0 -3 22 c-135 839 -291 1573 -505 2382 -33 125 -62 236 -64 245 -2 9
-19 70 -38 136 -31 107 -49 170 -51 185 -1 3 -21 73 -45 155 -329 1132 -752
2335 -1187 3381 l-104 252 25 53 c35 77 51 188 36 240 -23 77 -175 202 -398
329 l-93 52 0 166 0 166 -96 -165 c-53 -90 -102 -167 -108 -171 -25 -18 -354
-120 -517 -162 -440 -113 -912 -188 -1463 -233 -302 -25 -1072 -24 -1386 0
-393 31 -762 76 -1147 139 l-133 22 0 149 0 149 28 -6 c128 -27 614 -86 907
-110 638 -53 1408 -45 2045 19 315 32 734 96 1025 155 159 32 515 114 511 117
-2 2 -97 -6 -212 -17 -810 -76 -1510 -105 -2344 -97 -552 6 -695 11 -1105 42
-298 23 -828 85 -842 99 -4 4 16 709 20 712 1 0 81 -9 177 -22 313 -41 502
-57 680 -58 126 -1 181 3 198 12 95 54 -123 205 -769 527 l-271 136 8 347 c12
462 10 524 -21 604 -6 14 13 9 91 -22 378 -154 832 -256 1289 -290 544 -40
1360 39 1922 185 490 128 899 327 1135 554 107 102 113 132 15 76 -237 -137
-583 -290 -867 -385 -860 -288 -1665 -299 -2464 -36 -379 125 -772 318 -1116
548 -74 50 -141 91 -147 91 -7 0 -13 6 -13 14 0 7 -5 13 -10 13 -6 0 -23 11
-37 24 -15 14 -30 23 -34 20 -4 -2 -14 4 -21 13 -7 10 -19 19 -25 21 -18 3
-16 -33 3 -49 13 -11 19 -10 37 1 20 12 21 12 8 -3 -31 -38 -78 -8 -67 43 5
26 2 32 -19 40 -14 5 -25 14 -25 19 0 5 -9 9 -19 8 -16 -1 -17 -5 -10 -25 8
-21 7 -23 -13 -17 -20 5 -21 4 -5 -5 15 -10 17 -30 17 -181 0 -110 4 -168 10
-164 6 3 7 -1 4 -9 -7 -19 -24 -21 -24 -4 0 6 -3 9 -6 6 -7 -7 18 -48 29 -48
4 0 5 5 2 10 -3 6 -1 10 4 10 6 0 11 -7 11 -16 0 -12 -8 -14 -35 -10 -59 10
-155 39 -150 46 2 4 -2 7 -10 7 -8 0 -11 -5 -8 -10 4 -6 -1 -8 -11 -4 -10 4
-22 7 -27 7 -6 0 -7 6 -3 13 6 9 4 9 -7 -1 -17 -16 -32 -16 -23 1 5 8 2 7 -10
-2 -14 -12 -524 -15 -3487 -19 -2023 -3 -3474 -1 -3479 4 -5 5 8 571 32 1338
38 1240 40 1334 25 1407 -30 154 -133 308 -264 395 -31 21 -96 52 -143 68
l-85 31 -2210 2 c-1821 1 -2221 -1 -2270 -12z m4500 -40 c97 -25 184 -74 263
-149 59 -56 81 -86 117 -160 29 -59 49 -116 56 -161 9 -56 4 -305 -25 -1250
-20 -649 -39 -1198 -42 -1220 -5 -39 -14 -61 -14 -34 0 12 -122 14 -852 11
-469 -1 -860 0 -868 3 -13 5 -13 7 0 16 13 9 13 10 0 6 -8 -2 -15 -10 -15 -18
-1 -8 -6 -13 -11 -12 -6 1 -11 -5 -11 -13 0 -11 4 -11 21 3 17 15 19 15 8 1
-11 -14 -10 -17 5 -21 10 -3 0 -4 -21 -1 -25 3 -45 -1 -55 -10 -14 -12 -18
-11 -34 4 -14 13 -15 20 -6 26 8 5 10 3 4 -6 -5 -9 -4 -11 3 -6 7 4 12 16 12
26 0 15 -6 19 -24 18 -14 -1 -22 -6 -20 -10 3 -4 12 -4 22 -1 9 3 14 3 11 -1
-4 -4 -214 -7 -467 -6 -437 0 -461 -1 -455 -17 3 -10 9 -22 14 -28 4 -5 31
-55 59 -110 29 -55 61 -112 72 -127 11 -16 15 -28 9 -28 -6 0 -15 9 -21 19 -7
14 -18 18 -37 16 -16 -2 -596 -4 -1291 -5 l-1263 0 -8 -23 c-6 -15 -9 1 -10
53 -2 112 -69 2091 -82 2421 -12 324 -9 349 58 488 65 136 213 258 368 302 56
16 207 18 2265 18 1941 1 2213 -1 2265 -14z m7672 -2968 c-2 -23 -3 -1 -3 48
0 50 1 68 3 42 2 -26 2 -67 0 -90z m-20 61 c-2 -13 -4 -3 -4 22 0 25 2 35 4
23 2 -13 2 -33 0 -45z m71 -7 c14 -9 13 -10 -8 -9 -20 2 -26 8 -28 28 -1 21 0
22 9 8 5 -10 17 -22 27 -27z m80 -2 c-3 -8 -7 -3 -11 10 -4 17 -3 21 5 13 5
-5 8 -16 6 -23z m159 -134 c0 -8 -4 -12 -9 -9 -5 3 -6 10 -3 15 9 13 12 11 12
-6z m-237 -230 c0 -5 -5 -3 -10 5 -5 8 -10 20 -10 25 0 6 5 3 10 -5 5 -8 10
-19 10 -25z m-12550 9 c0 -8 -19 -13 -24 -6 -3 5 1 9 9 9 8 0 15 -2 15 -3z
m9550 -1379 l0 -95 -2125 0 -2125 0 0 95 0 95 2125 0 2125 0 0 -95z m-2120
-440 l0 -95 -1065 0 -1065 0 0 95 0 95 1065 0 1065 0 0 -95z m0 -370 l0 -95
-1065 0 -1065 0 0 95 0 95 1065 0 1065 0 0 -95z m1920 0 l0 -95 -845 0 -845 0
0 95 0 95 845 0 845 0 0 -95z m-620 -370 l0 -95 -1715 0 -1715 0 0 95 0 95
1715 0 1715 0 0 -95z m-2200 -370 l0 -95 -615 0 -615 0 0 95 0 95 615 0 615 0
0 -95z m2590 -365 l0 -100 -1910 0 -1910 0 0 100 0 100 1910 0 1910 0 0 -100z
m-880 -365 l0 -95 -1470 0 -1470 0 0 95 0 95 1470 0 1470 0 0 -95z m-1550
-370 l0 -95 -695 0 -695 0 0 95 0 95 695 0 695 0 0 -95z m2190 0 l0 -95 -1055
0 -1055 0 0 95 0 95 1055 0 1055 0 0 -95z m-1450 -370 l0 -95 -1065 0 -1065 0
0 95 0 95 1065 0 1065 0 0 -95z m-1510 -370 l0 -95 -310 0 -310 0 0 95 0 95
310 0 310 0 0 -95z m2460 0 l0 -95 -1110 0 -1110 0 0 95 0 95 1110 0 1110 0 0
-95z m-1690 -360 l0 -95 -695 0 -695 0 0 95 0 95 695 0 695 0 0 -95z m2190 0
l0 -95 -1055 0 -1055 0 0 95 0 95 1055 0 1055 0 0 -95z m-5588 -230 c-2 -10 1
-14 8 -10 6 4 11 1 9 -6 -7 -57 -4 -59 81 -59 64 0 80 -3 80 -15 0 -11 11 -15
40 -15 33 0 40 3 40 19 0 16 -8 21 -42 24 -24 2 12 4 80 5 l122 2 0 -40 0 -40
80 0 c47 0 80 -4 80 -10 0 -6 47 -10 120 -10 100 0 120 -2 120 -15 0 -17 11
-18 99 -9 50 6 61 10 61 25 0 15 8 19 40 19 l40 0 0 -40 0 -40 80 0 c47 0 80
-4 80 -10 0 -6 47 -10 120 -10 100 0 120 -2 120 -15 0 -17 11 -18 99 -9 50 6
61 10 61 25 0 15 8 19 40 19 l40 0 0 -40 0 -40 80 0 c47 0 80 -4 80 -10 0 -6
47 -10 120 -10 100 0 120 -2 120 -15 0 -11 11 -15 40 -15 33 0 40 3 40 19 0
17 -11 20 -87 27 -49 4 -93 7 -100 6 -6 -2 -14 2 -17 7 -4 6 9 7 31 4 21 -2
124 -5 228 -6 105 -1 171 -3 148 -5 l-43 -3 0 -43 0 -43 123 -7 c162 -9 172
-11 172 -37 0 -13 19 -13 23 0 2 6 -2 11 -8 11 -7 0 -10 7 -7 14 4 10 1 13 -9
9 -7 -3 -14 -1 -14 5 0 6 8 9 18 7 9 -1 16 -7 15 -11 -1 -5 19 -7 43 -5 35 2
44 0 44 -13 0 -12 10 -16 46 -16 27 0 43 -4 39 -10 -11 -17 3 -11 29 13 25 23
25 37 2 37 -6 0 -5 -4 2 -9 11 -6 9 -9 -6 -13 -13 -4 -19 -2 -16 6 3 8 -11 13
-43 15 -26 1 -50 4 -52 7 -3 2 30 3 71 2 44 -2 76 -7 75 -13 -1 -7 371 -11
1097 -13 605 -1 1101 -3 1102 -5 2 -1 4 -41 5 -87 2 -83 12 -111 37 -102 6 2
12 -1 12 -6 0 -11 -39 -10 -57 1 -8 5 -13 3 -13 -5 0 -9 -2 -10 -8 -1 -5 8
-131 11 -487 10 -264 -1 -457 -5 -430 -9 28 -3 101 -7 163 -7 67 -1 112 -5
112 -11 0 -6 47 -10 120 -10 100 0 120 -2 120 -15 0 -11 11 -15 40 -15 33 0
40 3 40 19 0 16 -8 21 -42 24 -24 2 12 4 80 5 l122 2 0 -40 0 -40 80 0 c47 0
80 -4 80 -10 0 -6 47 -10 120 -10 100 0 120 -2 120 -15 0 -11 11 -15 40 -15
33 0 40 3 40 19 0 16 -8 21 -42 24 -24 2 12 4 80 5 l122 2 0 -40 0 -40 80 0
c47 0 80 -4 80 -10 0 -6 47 -10 120 -10 100 0 120 -2 120 -15 0 -11 11 -15 40
-15 33 0 40 3 40 19 0 16 -8 21 -42 24 -24 2 12 4 80 5 l122 2 0 -40 0 -40 78
0 c49 0 83 -5 91 -12 10 -11 11 -9 6 7 -6 16 -5 17 4 5 6 -9 6 -19 1 -24 -4
-4 -6 -15 -3 -24 4 -8 -2 -21 -12 -28 -10 -8 -14 -14 -8 -14 6 0 9 -9 6 -20
-8 -28 -22 -35 -17 -8 4 21 4 21 -5 3 -5 -13 -5 -25 2 -33 8 -10 7 -16 -2 -21
-6 -4 -11 -14 -9 -21 2 -7 -3 -15 -11 -18 -10 -3 -12 0 -8 12 9 22 -10 11 -23
-13 -8 -16 -6 -17 15 -13 16 3 25 0 25 -8 0 -7 -7 -10 -15 -7 -8 4 -17 1 -21
-5 -4 -6 -3 -8 4 -4 19 11 23 -12 11 -56 -7 -24 -14 -51 -16 -60 -1 -9 -18
-77 -38 -150 -54 -209 -131 -548 -191 -843 -29 -148 -54 -271 -54 -272 0 -2
-1210 -3 -2689 -3 -2330 0 -2700 2 -2766 15 -252 48 -457 255 -506 509 -9 51
-41 1195 -38 1414 1 68 -2 126 -5 129 -10 10 -7 373 3 373 5 0 7 -8 4 -19 -3
-10 0 -22 7 -26 8 -5 10 3 8 26 -2 20 -8 33 -15 32 -9 -2 -10 4 -3 21 6 16 5
26 -1 30 -5 2 -4 3 3 2 7 -2 12 -11 10 -21z m4138 -135 l0 -100 -1058 0 c-661
0 -1062 -4 -1068 -10 -6 -6 -15 -5 -24 1 -13 9 -12 10 3 5 15 -5 17 4 17 99
l0 105 1065 0 1065 0 0 -100z m-3257 -7 c-13 -2 -33 -2 -45 0 -13 2 -3 4 22 4
25 0 35 -2 23 -4z m640 -80 c-13 -2 -33 -2 -45 0 -13 2 -3 4 22 4 25 0 35 -2
23 -4z m442 -31 c-3 -3 -11 0 -18 7 -9 10 -8 11 6 5 10 -3 15 -9 12 -12z m438
-9 c-13 -2 -33 -2 -45 0 -13 2 -3 4 22 4 25 0 35 -2 23 -4z m240 -20 c-13 -2
-33 -2 -45 0 -13 2 -3 4 22 4 25 0 35 -2 23 -4z m-38 -103 c3 -6 -1 -7 -9 -4
-18 7 -21 14 -7 14 6 0 13 -4 16 -10z m3770 -369 c3 -5 2 -12 -3 -15 -5 -3 -9
1 -9 9 0 17 3 19 12 6z m11 -50 c-9 -16 -12 -32 -8 -36 4 -4 -3 -1 -15 6 -21
12 -21 14 -5 21 9 3 13 7 7 8 -9 0 23 30 32 30 2 0 -3 -13 -11 -29z m6743
-2784 c8 -10 7 -14 -2 -14 -8 0 -14 6 -14 14 0 7 1 13 2 13 2 0 8 -6 14 -13z
m-3919 -82 c-7 -8 -9 -20 -5 -27 4 -7 -1 -4 -9 6 -9 11 -16 25 -16 30 0 6 5 4
10 -4 9 -14 14 -7 11 13 -1 5 3 6 9 2 8 -5 8 -11 0 -20z m3959 -14 c2 -1 -2
-7 -8 -15 -9 -11 -9 -15 1 -19 8 -4 7 -6 -4 -6 -10 -1 -18 2 -19 7 0 4 -2 14
-4 23 -3 15 1 16 34 10z m-3975 -46 c-4 -8 -11 -15 -18 -15 -6 0 -4 -5 4 -10
13 -8 12 -10 -3 -10 -10 0 -15 -5 -12 -10 4 -6 10 -8 15 -5 5 3 1 -9 -8 -27
-9 -18 -17 -41 -17 -51 -1 -10 -6 -22 -11 -27 -16 -16 -11 35 5 53 7 9 10 24
7 33 -8 22 14 84 31 84 7 0 10 -7 7 -15z m3990 -40 c3 3 4 2 1 -2 -10 -13 -37
-12 -32 2 3 7 2 17 -1 21 -4 5 0 2 9 -8 9 -9 19 -15 23 -13z m-2 -39 c7 4 8 2
4 -4 -11 -18 -26 -14 -25 6 0 10 3 12 6 4 2 -6 10 -9 15 -6z m28 -48 c0 -5 -9
-8 -20 -8 -12 0 -20 7 -20 16 0 14 3 14 15 4 13 -11 15 -10 9 6 -5 16 -4 16 5
4 6 -8 11 -18 11 -22z m-4058 -63 c-2 -14 -8 -22 -13 -19 -13 8 -11 32 4 37 6
3 13 6 13 6 1 1 -1 -10 -4 -24z m4059 13 c1 -7 2 -25 3 -39 1 -15 6 -33 12
-40 6 -8 15 -21 19 -29 8 -13 7 -13 -9 -1 -16 13 -17 12 -11 -15 5 -24 4 -26
-5 -11 -6 9 -12 33 -13 52 -1 19 -5 35 -9 35 -5 0 -8 14 -8 30 0 29 19 44 21
18z m-4071 -72 c0 -7 -3 -16 -7 -20 -4 -4 -8 -13 -9 -19 0 -7 -2 -21 -3 -32
-1 -17 -3 -18 -11 -5 -6 10 -10 11 -10 3 0 -7 -5 -13 -11 -13 -8 0 -8 4 1 15
6 8 9 19 5 25 -3 5 1 13 10 16 12 5 13 9 4 14 -17 11 -3 41 16 34 8 -3 15 -12
15 -18z m4105 -96 c-3 -13 2 -20 12 -20 12 0 13 -3 4 -14 -9 -11 -9 -16 2 -23
8 -4 17 -24 20 -43 5 -25 4 -31 -3 -20 -8 12 -10 9 -10 -13 0 -15 7 -30 15
-33 8 -4 15 -10 15 -14 0 -11 -35 -5 -36 6 0 5 -8 44 -18 87 -10 42 -15 84
-12 92 8 22 15 18 11 -5z"/>
<path d="M12341 10709 c-18 -15 -20 -19 -7 -19 9 0 19 6 22 14 3 8 12 12 20 9
8 -3 11 -10 7 -16 -3 -6 -1 -7 5 -3 16 10 15 14 -6 25 -12 7 -24 4 -41 -10z"/>
<path d="M13927 10711 c-4 -17 -3 -21 5 -13 5 5 8 16 6 23 -3 8 -7 3 -11 -10z"/>
<path d="M12080 4690 c0 -5 18 -10 40 -10 22 0 40 5 40 10 0 6 -18 10 -40 10
-22 0 -40 -4 -40 -10z"/>
<path d="M12283 4663 c20 -2 37 -8 37 -14 0 -5 18 -9 40 -9 22 0 40 5 40 10 0
6 -8 10 -19 10 -10 0 -45 2 -77 4 -32 2 -42 1 -21 -1z"/>
<path d="M12720 4610 c0 -5 18 -10 40 -10 22 0 40 5 40 10 0 6 -18 10 -40 10
-22 0 -40 -4 -40 -10z"/>
<path d="M14013 4595 c0 -8 4 -12 9 -9 5 3 6 10 3 15 -9 13 -12 11 -12 -6z"/>
<path d="M12923 4583 c20 -2 37 -8 37 -14 0 -5 18 -9 40 -9 22 0 40 5 40 10 0
6 -8 10 -19 10 -10 0 -45 2 -77 4 -32 2 -42 1 -21 -1z"/>
<path d="M13360 4530 c0 -5 18 -10 40 -10 22 0 40 5 40 10 0 6 -18 10 -40 10
-22 0 -40 -4 -40 -10z"/>
<path d="M13563 4503 c20 -2 37 -8 37 -14 0 -5 18 -9 40 -9 22 0 40 5 40 10 0
6 -8 10 -19 10 -10 0 -45 2 -77 4 -32 2 -42 1 -21 -1z"/>
<path d="M14004 4429 c-6 -11 21 -23 35 -15 5 3 11 1 13 -6 3 -8 7 -6 11 5 4
10 1 17 -6 18 -7 0 -20 2 -29 4 -10 2 -20 -1 -24 -6z"/>
<path d="M14897 4423 c5 -12 3 -14 -8 -8 -8 4 -11 4 -6 0 4 -5 16 -10 27 -12
19 -3 19 -2 3 17 -21 24 -24 25 -16 3z"/>
<path d="M14705 4389 c-4 -6 -5 -12 -2 -15 2 -3 7 2 10 11 7 17 1 20 -8 4z"/>
<path d="M14485 4385 c19 -7 205 -12 205 -5 0 3 -48 7 -107 8 -60 0 -103 -1
-98 -3z"/>
<path d="M14418 4363 c12 -2 32 -2 45 0 12 2 2 4 -23 4 -25 0 -35 -2 -22 -4z"/>
<path d="M14738 4363 c12 -2 32 -2 45 0 12 2 2 4 -23 4 -25 0 -35 -2 -22 -4z"/>
<path d="M14843 4343 c20 -2 37 -8 37 -14 0 -5 18 -9 40 -9 22 0 40 5 40 10 0
6 -8 10 -19 10 -10 0 -45 2 -77 4 -32 2 -42 1 -21 -1z"/>
<path d="M15058 4283 c12 -2 32 -2 45 0 12 2 2 4 -23 4 -25 0 -35 -2 -22 -4z"/>
<path d="M15378 4283 c12 -2 32 -2 45 0 12 2 2 4 -23 4 -25 0 -35 -2 -22 -4z"/>
<path d="M15483 4263 c20 -2 37 -8 37 -14 0 -5 18 -9 40 -9 22 0 40 5 40 10 0
6 -8 10 -19 10 -10 0 -45 2 -77 4 -32 2 -42 1 -21 -1z"/>
<path d="M15698 4203 c12 -2 32 -2 45 0 12 2 2 4 -23 4 -25 0 -35 -2 -22 -4z"/>
<path d="M16018 4203 c12 -2 32 -2 45 0 12 2 2 4 -23 4 -25 0 -35 -2 -22 -4z"/>
<path d="M16123 4183 c20 -2 37 -8 37 -14 0 -5 18 -9 40 -9 22 0 40 5 40 10 0
6 -8 10 -19 10 -10 0 -45 2 -77 4 -32 2 -42 1 -21 -1z"/>
<path d="M16658 4123 c12 -2 32 -2 45 0 12 2 2 4 -23 4 -25 0 -35 -2 -22 -4z"/>
<path d="M16763 4103 c20 -2 37 -8 37 -14 0 -5 18 -9 40 -9 22 0 40 5 40 10 0
6 -8 10 -19 10 -10 0 -45 2 -77 4 -32 2 -42 1 -21 -1z"/>
<path d="M17298 4043 c12 -2 32 -2 45 0 12 2 2 4 -23 4 -25 0 -35 -2 -22 -4z"/>
<path d="M18360 4040 c-9 -6 -10 -10 -3 -10 6 0 15 5 18 10 8 12 4 12 -15 0z"/>
<path d="M17403 4023 c20 -2 37 -8 37 -14 0 -5 18 -9 40 -9 22 0 40 5 40 10 0
6 -8 10 -19 10 -10 0 -45 2 -77 4 -32 2 -42 1 -21 -1z"/>
<path d="M17938 3963 c12 -2 32 -2 45 0 12 2 2 4 -23 4 -25 0 -35 -2 -22 -4z"/>
<path d="M18043 3943 c20 -2 37 -8 37 -14 0 -5 18 -9 40 -9 22 0 40 5 40 10 0
6 -8 10 -19 10 -10 0 -45 2 -77 4 -32 2 -42 1 -21 -1z"/>
<path d="M21170 1011 c0 -5 5 -13 10 -16 6 -3 10 -2 10 4 0 5 -4 13 -10 16 -5
3 -10 2 -10 -4z"/>
<path d="M21165 960 c3 -5 8 -10 11 -10 2 0 4 5 4 10 0 6 -5 10 -11 10 -5 0
-7 -4 -4 -10z"/>
<path d="M18086 13533 c-6 -14 -5 -15 5 -6 7 7 10 15 7 18 -3 3 -9 -2 -12 -12z"/>
<path d="M28451 12545 c-1 -6 -81 -9 -226 -7 -201 3 -224 2 -219 -12 7 -19 16
-20 31 -5 14 14 24 -24 11 -42 -8 -11 -9 -10 -4 3 5 18 -6 32 -17 21 -8 -7 24
-63 36 -63 4 0 6 -4 3 -8 -2 -4 4 -18 13 -31 14 -18 20 -21 26 -11 6 9 4 11
-6 5 -8 -5 -11 -4 -6 1 5 5 10 7 11 4 2 -3 11 2 22 10 17 14 18 14 6 -1 -18
-24 -6 -26 138 -28 68 -1 126 -4 129 -6 2 -3 10 3 18 13 12 14 14 14 10 1 -3
-9 1 -16 8 -16 8 0 13 5 12 11 -1 6 3 10 10 9 14 -3 17 107 3 140 -5 12 -9 18
-9 12z m-374 -61 c-3 -4 -2 -15 4 -26 10 -18 9 -18 -11 -8 -17 9 -19 14 -9 26
6 8 14 14 17 14 3 0 2 -3 -1 -6z m353 -26 c0 -19 -16 -5 -17 14 -2 18 0 20 7
8 5 -8 10 -18 10 -22z m-290 -22 c0 -2 -7 -7 -16 -10 -8 -3 -12 -2 -9 4 6 10
25 14 25 6z m-43 -12 c-3 -3 -12 -4 -19 -1 -8 3 -5 6 6 6 11 1 17 -2 13 -5z"/>
<path d="M28238 12353 c45 -2 119 -2 165 0 45 1 8 3 -83 3 -91 0 -128 -2 -82
-3z"/>
<path d="M21740 12075 c0 -52 1 -55 23 -50 12 3 72 2 134 -3 61 -4 109 -4 107
0 -2 3 1 8 8 10 6 2 9 12 5 21 -5 14 -11 15 -32 7 -34 -13 -65 -13 -65 0 0 6
11 8 23 6 13 -2 30 0 38 5 10 7 5 8 -14 5 -25 -4 -27 -2 -21 17 6 22 6 22 -11
2 -9 -11 -14 -15 -11 -8 3 6 3 18 0 27 -5 13 -23 16 -95 16 l-89 0 0 -55z"/>
<path d="M22033 12015 c0 -8 4 -12 9 -9 5 3 6 10 3 15 -9 13 -12 11 -12 -6z"/>
<path d="M22060 12012 c0 -6 6 -13 13 -15 6 -3 8 -6 2 -6 -6 -1 -9 -50 -7
-132 3 -90 0 -134 -8 -139 -6 -3 -8 -14 -4 -23 3 -9 9 -15 13 -12 4 2 8 -2 8
-10 0 -8 -8 -12 -21 -9 -19 3 -19 2 4 -16 28 -22 45 -26 34 -8 -4 7 -3 8 5 4
6 -4 9 -11 6 -16 -7 -12 22 -33 36 -24 7 4 9 3 6 -3 -9 -14 225 -149 458 -263
399 -196 813 -337 1230 -419 230 -45 240 -45 107 4 -469 169 -1046 472 -1450
761 -57 41 -108 71 -114 68 -6 -4 -8 -2 -5 3 8 12 -57 66 -67 56 -3 -4 -6 -1
-6 5 0 14 -60 53 -71 46 -4 -2 -11 1 -15 7 -5 8 -3 9 7 4 30 -19 -13 24 -86
85 -41 34 -75 57 -75 52z m63 -68 c-3 -9 0 -14 7 -12 15 4 22 -29 9 -38 -5 -3
-8 -1 -7 5 2 5 -6 16 -16 24 -19 14 -16 54 3 42 6 -3 8 -12 4 -21z m157 -109
c0 -2 -6 -8 -13 -14 -10 -8 -14 -7 -14 2 0 8 6 14 14 14 7 0 13 -1 13 -2z m84
-93 c3 -5 -1 -9 -9 -9 -8 0 -12 4 -9 9 3 4 7 8 9 8 2 0 6 -4 9 -8z"/>
<path d="M14950 11554 c-239 -200 -455 -381 -479 -402 -24 -20 -50 -40 -57
-45 -13 -8 -8 -37 6 -37 7 0 51 34 120 93 54 46 480 402 560 467 30 25 57 48
60 51 3 4 39 34 80 68 41 34 97 81 123 103 44 38 54 58 31 64 -5 2 -205 -161
-444 -362z"/>
<path d="M21726 11878 c3 -5 9 -7 12 -4 3 3 12 0 21 -6 13 -10 14 -10 4 2 -15
16 -46 23 -37 8z"/>
<path d="M21897 11759 c7 -7 15 -10 18 -7 3 3 -2 9 -12 12 -14 6 -15 5 -6 -5z"/>
<path d="M21966 11708 c3 -5 10 -6 15 -3 13 9 11 12 -6 12 -8 0 -12 -4 -9 -9z"/>
<path d="M22014 11704 c-10 -8 -13 -12 -5 -8 7 3 17 1 21 -6 5 -9 9 -9 14 -1
4 6 2 11 -4 11 -6 0 -8 5 -5 10 9 14 2 12 -21 -6z"/>
<path d="M26030 11314 c-234 -176 -535 -374 -790 -521 -80 -46 -149 -89 -155
-95 -7 -8 -6 -9 3 -4 16 9 16 -36 0 -52 -9 -9 -9 -12 0 -12 9 0 12 -36 12
-130 0 -123 -1 -130 -20 -130 -18 0 -20 8 -23 123 l-3 122 -2 -122 c-1 -68 -6
-123 -11 -123 -6 0 -11 -15 -13 -32 -2 -18 -9 -34 -15 -34 -7 -1 -18 -2 -24
-3 -18 -2 1 -21 22 -21 11 0 17 -4 14 -10 -9 -14 -7 -14 102 21 315 101 591
246 833 439 61 50 90 80 94 98 3 15 13 70 21 122 9 52 32 175 51 274 19 98 34
179 32 181 -2 1 -59 -40 -128 -91z m-875 -604 c-3 -5 -14 -10 -23 -9 -14 0
-13 2 3 9 27 11 27 11 20 0z"/>
<path d="M27762 10798 c-8 -11 17 -47 110 -163 67 -83 135 -168 152 -191 17
-23 62 -79 99 -125 38 -46 83 -102 100 -123 100 -123 115 -137 124 -111 2 8
-143 198 -246 321 -14 17 -33 40 -41 50 -105 132 -265 332 -275 342 -10 11
-14 11 -23 0z"/>
<path d="M20910 10570 c0 -73 4 -120 10 -120 6 0 10 47 10 120 0 73 -4 120
-10 120 -6 0 -10 -47 -10 -120z"/>
<path d="M25056 10654 c-16 -11 -22 -11 -29 -1 -6 9 -7 8 -4 -3 4 -16 35 -15
51 1 17 15 2 18 -18 3z"/>
<path d="M31434 10583 c3 -16 8 -55 11 -88 13 -132 28 -235 35 -235 4 0 33 9
66 21 32 11 97 26 143 33 l84 11 15 53 c9 31 11 57 6 61 -10 9 -351 171 -360
171 -3 0 -3 -12 0 -27z"/>
<path d="M32307 10528 c-8 -18 -45 -103 -82 -189 l-68 -157 42 -37 c36 -33
133 -167 144 -199 3 -10 82 55 214 178 35 33 65 57 66 55 4 -5 10 -33 78 -352
27 -130 48 -241 45 -246 -3 -4 -48 -34 -101 -67 -53 -32 -114 -70 -136 -84
l-39 -25 -5 -125 c-3 -69 -11 -163 -19 -210 -8 -47 -11 -88 -7 -92 3 -4 62
-16 131 -28 68 -12 126 -22 127 -24 2 -1 -1 -16 -6 -32 -12 -37 -240 -656
-243 -660 -2 -1 -52 27 -113 62 -60 35 -113 64 -117 64 -4 0 -29 -38 -57 -84
-28 -46 -80 -123 -117 -171 l-65 -87 50 -146 c27 -81 53 -156 57 -167 5 -14 4
-17 -3 -10 -6 6 -16 27 -23 48 -6 20 -18 44 -27 52 -10 11 -11 15 -2 15 7 0 5
7 -7 16 -10 8 -13 13 -6 9 6 -3 12 -4 12 -2 0 3 -6 18 -12 34 -11 26 -18 30
-50 28 -20 0 -35 3 -32 7 3 4 -18 8 -45 8 -28 0 -51 4 -51 8 0 5 -53 14 -117
21 -65 7 -140 19 -168 26 -27 8 -101 19 -162 26 -62 7 -113 16 -113 21 0 4
-36 8 -80 8 -47 0 -80 4 -80 10 0 6 -15 10 -32 10 -18 0 -58 7 -88 15 -30 8
-88 15 -127 15 -40 0 -73 4 -73 9 0 5 -35 12 -77 16 -43 4 -80 10 -83 14 -3 4
-78 16 -168 27 l-162 20 6 -20 c9 -28 8 -28 35 -18 25 9 49 6 49 -7 0 -4 -15
-7 -32 -7 -30 1 -33 -2 -36 -31 -2 -20 1 -33 8 -33 6 0 8 -4 5 -10 -8 -13 45
-262 59 -276 6 -6 103 -21 216 -33 112 -12 206 -23 207 -25 2 -2 -28 -75 -66
-162 -47 -110 -65 -161 -57 -166 85 -49 1023 -375 1050 -365 6 2 24 53 40 113
16 60 32 112 35 116 4 5 94 -21 201 -57 l194 -65 243 183 c133 100 242 187
243 194 0 7 -25 82 -55 168 -51 147 -53 157 -37 174 42 45 121 153 152 209 16
28 29 41 39 38 46 -12 263 -48 267 -43 5 5 254 678 254 687 0 3 -59 32 -130
65 -87 40 -128 64 -125 73 3 7 10 86 16 175 l12 162 138 85 c76 47 138 88 139
91 0 9 -129 611 -132 614 -2 2 -90 31 -195 64 -106 34 -193 67 -193 73 0 5 20
56 44 112 25 56 46 107 48 114 2 9 -94 45 -301 112 -167 55 -310 100 -317 100
-8 0 -20 -15 -27 -32z m-1947 -2438 c0 -5 -2 -10 -4 -10 -3 0 -8 5 -11 10 -3
6 -1 10 4 10 6 0 11 -4 11 -10z m37 -6 c-3 -3 -12 -4 -19 -1 -8 3 -5 6 6 6 11
1 17 -2 13 -5z m307 -46 c-3 -5 -10 -6 -15 -2 -5 3 -16 1 -23 -5 -9 -8 -13 -7
-13 4 0 10 9 14 28 13 15 -1 25 -6 23 -10z"/>
<path d="M21172 10437 c-7 -8 -7 -18 -2 -27 6 -8 10 -10 11 -5 0 6 2 18 4 28
4 20 1 21 -13 4z"/>
<path d="M36670 10331 c-122 -40 -189 -130 -190 -254 0 -82 25 -141 82 -193
56 -50 102 -67 178 -67 142 -1 246 97 258 240 8 107 -47 207 -142 255 -44 22
-145 33 -186 19z"/>
<path d="M26455 9874 c-125 -99 -340 -219 -541 -304 -54 -24 -117 -51 -139
-60 -67 -30 -272 -99 -415 -139 -401 -114 -967 -215 -1464 -261 -121 -11 -224
-20 -228 -20 -4 0 -8 -4 -8 -10 0 -5 20 -10 45 -10 31 0 47 -5 51 -15 4 -10
20 -15 45 -15 27 0 39 -4 39 -14 0 -23 174 -29 495 -17 160 6 317 14 350 17
116 9 261 25 355 38 120 17 150 18 130 6 -8 -5 -17 -7 -21 -4 -10 6 -20 -26
-12 -39 4 -7 6 -85 4 -174 -2 -113 1 -163 8 -163 20 0 11 -19 -11 -24 -13 -2
146 -3 352 -1 451 4 711 28 1025 96 127 27 121 22 83 76 -17 27 -36 53 -41 58
-46 53 -312 419 -328 451 -25 52 -20 73 39 184 41 77 178 286 240 368 13 17
23 32 21 31 -2 0 -35 -25 -74 -55z m-2698 -790 c-3 -3 -12 -4 -19 -1 -8 3 -5
6 6 6 11 1 17 -2 13 -5z m1439 -30 c-4 -9 -9 -15 -11 -12 -3 3 -3 13 1 22 4 9
9 15 11 12 3 -3 3 -13 -1 -22z m4 -34 c0 -5 -4 -10 -10 -10 -5 0 -10 5 -10 10
0 6 5 10 10 10 6 0 10 -4 10 -10z"/>
<path d="M31555 9667 c-123 -41 -227 -117 -308 -225 -166 -222 -237 -422 -237
-670 0 -132 20 -234 63 -319 106 -206 325 -254 534 -116 29 19 51 38 48 42
-16 27 -25 192 -15 283 27 243 122 455 277 616 l81 86 -23 63 c-37 98 -112
190 -187 229 -43 23 -178 29 -233 11z"/>
<path d="M35375 9123 c-305 -65 -542 -308 -603 -617 -15 -76 -13 -165 37
-1661 65 -1965 64 -1940 91 -2035 75 -263 281 -466 555 -547 57 -17 205 -18
2690 -21 1961 -2 2649 0 2705 9 323 50 581 294 645 611 11 56 27 466 65 1708
27 900 50 1694 50 1765 0 72 -7 159 -14 196 -57 266 -273 496 -546 581 l-75
23 -2765 2 c-2426 1 -2774 0 -2835 -14z m5639 -41 c222 -62 389 -199 486 -397
59 -119 74 -188 74 -340 -1 -151 -91 -3096 -100 -3230 l-5 -90 -500 3 c-348 2
-498 6 -493 13 3 6 -3 5 -14 -2 -12 -7 -18 -17 -16 -21 3 -4 0 -8 -5 -8 -6 0
-11 6 -11 13 0 9 -344 11 -1702 7 -989 -3 -1709 -9 -1717 -14 -10 -6 -12 -6
-7 2 5 8 -150 12 -586 13 -326 0 -600 1 -608 1 -8 1 -21 6 -29 12 -11 8 -13 8
-7 -1 5 -10 -84 -13 -414 -15 -231 -2 -420 0 -420 5 0 4 5 7 12 7 6 0 9 2 6 5
-10 11 -37 -7 -31 -21 3 -8 1 -14 -4 -14 -5 0 -10 6 -10 13 -1 6 -26 743 -57
1637 -31 894 -59 1642 -62 1663 -8 56 13 198 42 280 97 271 337 463 622 497
37 4 1284 7 2772 6 l2705 -1 79 -23z m443 -4117 c0 -8 -4 -12 -9 -9 -5 3 -6
10 -3 15 9 13 12 11 12 -6z"/>
<path d="M38496 6981 c-4 -5 -2 -12 4 -16 5 -3 10 -11 10 -17 0 -6 -7 -5 -17
3 -11 10 -14 10 -9 2 11 -19 -5 -16 -21 5 -13 16 -14 16 -5 -1 8 -18 51 -19
973 -20 631 -1 966 -5 969 -12 3 -7 -333 -11 -997 -13 -906 -2 -1003 -4 -1003
-18 0 -9 -6 -14 -12 -11 -7 2 -21 0 -30 -5 -13 -6 -18 -5 -18 4 0 10 -2 10 -9
0 -4 -8 -10 -12 -13 -10 -7 5 -77 -35 -73 -42 2 -4 -1 -7 -8 -7 -7 0 -126 -73
-265 -161 -138 -89 -254 -162 -257 -162 -3 0 -5 104 -5 230 l0 230 -935 0
c-613 0 -935 -3 -935 -10 0 -6 319 -11 923 -12 l922 -3 5 -47 c3 -26 2 -44 -2
-42 -4 3 -8 18 -8 35 l0 29 -909 0 c-500 0 -923 3 -940 6 -20 4 -31 3 -31 -5
0 -6 7 -11 15 -11 8 0 15 -5 15 -11 0 -6 -6 -9 -14 -6 -12 5 -15 -71 -18 -526
-2 -293 -2 -535 0 -539 2 -5 1049 -8 2327 -8 1278 0 2325 3 2327 8 2 4 2 253
0 555 -3 463 -6 547 -18 547 -8 0 -13 8 -11 20 2 20 -4 20 -925 20 -567 0
-937 -4 -952 -10 -23 -8 -25 -7 -23 12 2 22 -17 36 -27 19z m24 -11 c0 -5 -2
-10 -4 -10 -3 0 -8 5 -11 10 -3 6 -1 10 4 10 6 0 11 -4 11 -10z m-150 -104 c0
-3 -4 -8 -10 -11 -5 -3 -10 -1 -10 4 0 6 5 11 10 11 6 0 10 -2 10 -4z m-87
-41 c-3 -9 -8 -14 -10 -11 -3 3 -2 9 2 15 9 16 15 13 8 -4z"/>
<path d="M35810 6949 c0 -5 5 -7 10 -4 6 3 10 8 10 11 0 2 -4 4 -10 4 -5 0
-10 -5 -10 -11z"/>
<path d="M38426 6943 c-6 -14 -5 -15 5 -6 7 7 10 15 7 18 -3 3 -9 -2 -12 -12z"/>
<path d="M40441 6944 c0 -11 3 -14 6 -6 3 7 2 16 -1 19 -3 4 -6 -2 -5 -13z"/>
<path d="M38366 6911 c-3 -5 1 -11 9 -15 8 -3 15 -1 15 4 0 13 -18 22 -24 11z"/>
<path d="M37010 5180 l0 -130 1698 -1 c933 -1 1708 0 1722 1 14 1 27 6 30 10
3 4 4 62 2 129 l-3 121 -1725 0 -1724 0 0 -130z"/>
<path d="M25110 9060 c0 -5 5 -10 11 -10 5 0 7 5 4 10 -3 6 -8 10 -11 10 -2 0
-4 -4 -4 -10z"/>
<path d="M25063 9033 c-18 -7 -16 -20 2 -20 8 0 15 6 15 14 0 7 -1 13 -2 12
-2 0 -9 -3 -15 -6z"/>
<path d="M25100 9030 c-13 -8 -12 -10 3 -10 9 0 17 5 17 10 0 12 -1 12 -20 0z"/>
<path d="M30295 8241 c-3 -5 -2 -12 3 -15 5 -3 9 1 9 9 0 17 -3 19 -12 6z"/>
<path d="M31953 7925 c-3 -9 -3 -18 -1 -21 3 -3 8 4 11 16 6 23 -1 27 -10 5z"/>
<path d="M9293 7676 c-61 -20 -100 -51 -133 -109 -52 -90 -36 -208 36 -281 94
-94 262 -88 344 12 110 132 50 328 -114 377 -59 18 -78 18 -133 1z"/>
<path d="M10109 5741 c-112 -149 -208 -270 -213 -270 -4 -1 -132 89 -284 199
-217 157 -278 197 -289 188 -8 -6 -10 -14 -6 -18 4 -4 131 -95 281 -204 149
-108 272 -199 272 -202 0 -3 -92 -126 -205 -274 -113 -148 -205 -274 -205
-280 0 -37 53 21 230 255 111 146 206 267 211 270 5 4 133 -84 285 -195 219
-159 279 -198 290 -189 17 14 45 -10 -283 228 -139 100 -255 186 -258 191 -3
5 88 133 204 284 115 151 207 277 203 280 -3 3 -11 6 -17 6 -7 0 -104 -121
-216 -269z"/>
<path d="M6639 5399 c-57 -50 -106 -93 -107 -95 -2 -1 107 -125 243 -274 136
-149 251 -268 255 -263 45 47 180 210 180 216 0 10 -451 507 -461 507 -3 0
-53 -41 -110 -91z"/>
<path d="M33565 4649 c-187 -110 -341 -204 -343 -209 -2 -5 41 -92 94 -194 66
-125 102 -183 110 -178 31 18 704 498 704 502 0 6 -219 280 -223 279 -1 0
-155 -90 -342 -200z"/>
<path d="M33628 3679 c-144 -197 -263 -364 -263 -371 0 -6 5 -13 11 -15 8 -3
544 715 544 730 0 3 -6 7 -14 10 -10 4 -98 -109 -278 -354z"/>
<path d="M21115 740 c-3 -5 -1 -10 4 -10 6 0 11 5 11 10 0 6 -2 10 -4 10 -3 0
-8 -4 -11 -10z"/>
</g>
</svg>
