<svg height="560pt" preserveAspectRatio="xMidYMid meet" viewBox="0 0 560 560" width="560pt" xmlns="http://www.w3.org/2000/svg"><g transform="matrix(.1 0 0 -.1 0 560)"><path d="m0 5280v-320l53 1c79 2 100 10 104 43 8 56 19 59 156 42 68-9 126-16 130-16s7 36 7 80c0 88-2 92-75 104-22 4-55 12-74 18-29 9-32 12-16 20 14 8 15 12 4 19s-11 9 2 9c11 0 18 13 23 41 5 33 9 39 20 30 10-8 16-9 21-1 3 5 1 10-6 10-10 0-10 3-1 12 7 7 12 18 12 25s9 32 20 56c10 23 18 51 17 62-1 15 5 21 26 23 16 2 35-2 42-8 11-9 18-9 30 3 8 9 15 22 15 29 0 8 5 19 12 26 9 9-47 12-255 12h-267z"/><path d="m3614 5385c0-121 2-169 3-107 2 62 2 161 0 220-1 59-3 8-3-113z"/><path d="m4034 5308c17-821 16-809 40-802 11 4 76 29 144 57l122 50v156c0 86-3 308-7 494l-6 337h-150-150z"/><path d="m4432 5135c3-256 8-469 12-472 3-3 53 11 111 32 95 34 106 40 101 59-34 143-76 361-76 401 0 14-5 36-11 47s-13 50-15 87c-3 65-14 123-39 211-7 25-16 57-19 73-5 22-12 27-38 27h-31z"/><path d="m4535 5493c11-58 24-75 25-31 0 43-8 68-22 68-6 0-8-14-3-37z"/><path d="m1715 5400c-28-7-28-8-5-9 18-1 21-4 11-10-9-6-4-10 17-13 23-3 32 0 35 13 4 14-17 35-26 28-1-1-15-5-32-9z"/><path d="m1900 5379c0-12-8-27-17-34-15-11-22-10-45 6-36 26-45 8-16-31 12-17 24-26 26-21 6 18 27 12 52-14 13-14 25-23 27-21s22-14 45-35 45-36 48-33-23 31-57 62c-61 56-62 58-56 100 3 23 3 42-1 42-3 0-6-10-6-21z"/><path d="m2614 5389c-3-6-12-8-20-5s-14 2-14-2-32-6-71-6c-48 1-72-2-75-11-3-7-15-10-28-8-26 5-66-23-66-45 0-8-6-12-15-9-8 4-17 2-20-3-4-6 0-10 7-11 7 0 4-4-7-8s-28-6-38-3c-14 4-15 8-6 21 6 9-2 1-20-16-17-18-33-33-36-33-13 0-45-43-43-57 2-9-5-17-18-19-15-3-28 9-53 52-19 30-36 53-38 50-2-2 7-22 21-45 27-42 34-85 16-96-6-4-8-11-5-16 4-5-1-9-9-9-9 0-16-6-16-13s-11-23-25-35c-19-16-25-32-25-62 0-29-5-42-20-50-11-6-23-23-26-38-4-15-14-40-24-57-9-16-23-57-30-90s-16-73-21-90c-5-16-8-39-8-50s-4-92-10-180c-10-147-8-287 5-375 20-134 27-162 37-145 10 18 12 199 2 215-3 5-8 65-10 132-4 120 11 239 35 280 5 10 7 24 4 32s1 28 9 43 30 62 50 105c30 63 48 87 107 137 39 34 74 61 78 61s13-9 20-20c15-25 33-26 26-2-5 16-5 16 9 0 17-22 27-23 27-3 0 17 11 20 26 5 6-6 30-6 69 0 33 6 72 8 87 4 15-3 31 0 38 8 8 8 29 12 59 9 35-3 41-6 26-12-18-7-17-8 7-8 14-1 28 4 30 11 8 23 166 6 195-22 11-10 30-21 42-25 25-8 90-74 91-91 0-6 7-17 15-24 16-13 21-35 6-26-15 10-20-33-4-45 8-7 12-21 10-31-4-15-1-18 16-13 20 5 20 5 4-5-10-7-25-9-34-6-11 4-14 2-9-9 3-10-1-15-14-15-10 0-22-5-25-11-4-6-13-8-21-5s-14 1-14-5c0-7 12-9 29-7 21 3 28 1 24-9-3-7-9-11-13-8-12 8-41-6-34-16 3-5 14-9 24-9 11 0 24-9 30-20s17-20 25-20 15-4 15-10c0-5 16-16 36-25 19-8 48-24 64-35l29-21-21-24c-12-13-26-21-32-17s-41 7-79 7c-52 0-66-3-62-13 3-8 5-18 5-24 0-7 5-6 14 1 10 8 16 9 21 1 3-6 11-7 17-4 7 4 8 2 4-4-4-7-13-12-20-12-8 0-19-7-26-15-14-17-7-19 20-5 16 9 18 8 13-6-4-12-3-15 5-10 7 4 12 2 12-3 0-6 10-11 23-11 12 0 41-9 62-20 22-12 49-18 61-16 16 4 24-1 33-20 6-15 10-27 9-28-2 0-13-6-25-13s-37-10-57-6c-29 4-36 2-36-11 0-9-11-18-27-21-77-15-169-50-191-72-13-13-25-23-27-21-1 2-5 24-9 50-6 42-5 47 16 54 22 7 22 7 3 15-17 6-17 8-2 8 9 1 17 7 17 15s6 17 13 19c6 3 3 6-9 6-30 1-99-67-118-118l-17-44 26-22 27-21-25-24c-20-19-23-29-16-48 13-34 11-42-11-42-27 0-26-36 1-51 12-6 19-7 16-2-3 4 1 13 8 20 10 10 19 7 40-12 14-14 29-25 33-26 4 0 16-2 27-3s34-9 50-17c25-12 30-20 30-49v-35l-50 2c-39 1-43 0-20-6l30-7-28-18c-18-12-24-22-17-26 16-10-17-25-64-28-12-1-16-7-12-17 3-9 0-24-6-35-9-14-9-22 1-34 7-8 10-19 7-24s26-18 65-31c38-12 67-26 64-31-3-4 2-11 11-14 8-3 12-11 8-17-4-8-9-7-15 2-7 11-9 10-9-3 0-10-7-18-15-18s-15-5-15-11c0-8 22-9 75-4l75 7-10-29c-19-51-33-73-52-79-10-3-16-10-13-15 11-17 25-9 52 34 15 23 31 44 34 47s10 15 13 28c5 14 14 21 24 20 12-2 17 4 17 19 0 12 4 25 8 29s7 2 7-4c0-7 3-11 8-10 4 1 17-3 30-10 18-11 21-19 18-49-3-20-10-39-16-43-17-11-30-68-17-74 7-2 2-8-10-11-16-5-23-15-23-31 0-13-4-24-8-24-5 0-9-6-9-13 0-12-39-74-54-87-19-16-27-48-16-60 9-10 9-11 0-6-8 4-15-3-19-21-4-15-11-30-15-33-5-4-10-23-11-43-2-21-8-37-15-37s-13-6-13-12c0-9-4-8-10 2-9 13-12 13-25-4-8-10-20-16-28-13-11 4-13 0-9-15 3-14 1-19-6-14-6 3-18-1-26-10-9-9-22-17-29-18-6-1-22-7-34-14-16-9-24-9-29 0-4 7-3 8 4 4s12-2 12 3c0 15-27 14-32-1-2-6-14-12-27-13-14-1-20 3-17 11s0 11-10 7c-7-3-14-9-14-14 0-15-29 2-33 19-3 12-5 10-6-5-1-23-11-29-25-16-3 4-12 8-19 9-56 10-73 16-92 34-12 11-30 20-41 20-25 0-70 52-96 110-11 25-25 56-31 70s-30 53-54 87-43 64-43 68-6 13-14 21c-8 7-22 37-31 66-10 29-22 58-29 63-6 6-12 17-12 25-1 8-5 24-10 34-4 11-4 17 2 13 6-3 7 20 4 58-3 37-2 61 4 58 5-4 6 6 2 23-5 21-4 25 4 14 7-11 9-7 7 18-5 42-12 48-68 55-42 6-49 3-79-26-19-18-30-26-26-19 4 6 3 12-3 12-5 0-12 8-15 18-3 9-4 4-2-11 3-22 0-27-14-25-9 2-16-1-16-7 1-5 7-10 15-10s16-7 19-15 13-23 23-32c31-30 9-98-32-98-10 0-20-4-24-9-8-15 34-34 60-27 20 5 25-1 45-57 12-34 38-93 57-130 18-37 31-73 27-79s-3-8 3-5c6 4 14-4 17-18 4-14 11-25 16-25 6 0 10-5 10-11s-7-9-15-5c-8 3-15 1-15-4 0-6 4-10 10-10 5 0 8-20 7-44-1-30-6-42-14-39-9 4-13-8-13-40 0-25-3-53-7-63-4-12-3-15 5-10 16 9 15-5-1-26-7-9-12-36-11-60s-2-48-7-54-10-34-11-62c-2-29-7-52-12-52-8 0-3 98 10 195l5 40-21-25c-11-14-28-51-38-83-24-83-89-136-289-238-87-45-162-85-168-89-5-5-143-74-305-155-162-82-318-163-347-181-28-18-109-63-180-99-70-37-135-74-144-83-9-10-24-51-33-94-16-71-118-354-134-370-6-6-64 43-276 239-66 61-90 76-81 51 8-25 47-294 55-386 6-64 14-98 26-109 15-16 15-18-6-35-30-24-19-34 24-21 41 13 41 12 90-55 46-63 60-134 30-146-10-4-21-1-26 6-10 17-10 5 1-24 17-44-32-72-77-44-7 4-12 3-12-2 0-6-9-8-20-5-15 4-20 0-20-16 0-14-10-26-27-33l-28-12 39-4c23-2 42 1 46 9 10 14 87 27 130 21l30-4v-103-103l-50-84c-51-85-53-92-80-277-10-67-10-93 0-137 11-45 11-56-2-76-8-13-17-33-20-45l-6-23h1255 1255l-6 132c-3 73-8 214-11 313-12 379-14 415-25 435-6 12-9 26-6 33 2 7 5 5 5-5 1-27 46-55 79-50 42 6 75 39 69 68-2 13 0 24 6 24 14 0 1-67-17-85-9-10-14-28-11-48 2-17 9-156 14-307 6-151 14-328 17-393l7-117h1058 1059l-11 28c-6 15-12 65-14 112-2 51-12 113-24 155-59 190-103 362-116 445-3 25-22 115-41 200-72 322-72 324-48 316 36-10 339-84 399-96 43-9 60-9 63-1s9 8 23 0c11-5 25-7 31-3 7 5 8 3 3-6-10-16 12-30 48-30 23 0 27 4 28 28v27l12-25c21-45 33-53 126-76 9-2 54-11 101-20s93-20 102-25c49-25 48-30 48 290v299l-63 11c-35 6-75 11-88 10-22-1-21-2 6-10 17-6 40-11 53-13 12-2 26-6 29-10 7-6-30-11-57-7-33 5-168 14-225 15-33 1-64 6-70 13-5 6-41 14-79 18-39 4-78 11-88 16-10 6-22 7-27 4s-35 1-68 9c-32 8-54 15-49 15 5 1 3 8-4 16-19 23-10 26 56 15 75-12 87-12 79 0-3 6-26 10-51 10s-53 4-63 10c-14 7-24 4-42-11-22-19-24-19-29-3-5 13-9 14-14 6-8-13-59-8-64 6-1 5-14 7-27 4-14-2-31 0-38 6s-42 14-77 17c-47 5-61 3-50-4 8-6 28-11 44-11s26-3 22-7c-6-6-48-6-111 1-30 3-45 15-39 30 3 8-8 23-25 36-24 16-30 27-25 44 5 21 1 24-34 30-22 3-50 15-63 27-13 11-18 17-10 13 9-5 12-3 7 5-4 6-13 10-20 9-13-3-55 27-113 79-19 17-48 35-64 38-16 4-29 11-29 15 0 5-34 25-75 44s-133 66-204 105c-96 53-128 76-126 89 1 9 0 11-2 4-3-6-7-12-9-12-13 0-64 32-64 39 0 5-11 12-25 15-14 4-25 11-25 16 0 6-6 10-14 10-26 0-230 135-285 189-82 79-86 99-83 369 2 206 4 227 24 265 11 23 33 76 48 117 27 73 28 74 63 76 58 2 81 44 121 227 9 40 23 33 18-9-3-21-1-34 5-31 12 8 16 74 4 82-6 3-8 12-5 20 4 8 9 13 13 11 3-2 7 17 8 43 1 46 1 46-8 11-15-55-31-90-40-90-4 0-8 8-8 18 0 9-3 45-7 80-7 66-2 73 36 50 29-19 43 0 29 40-11 34-61 58-93 46-15-6-17-2-10 32 3 22 10 44 15 49 4 6 13 42 20 80 10 61 13 66 21 45 6-14 10-43 10-65v-40l13 30c14 34 25 215 13 215-4 0-8-5-8-10 0-7-6-7-20 0-17 9-20 21-20 70 0 57 1 60 24 60 29 0 40 13 31 39-9 29-37 36-33 9 2-11-2-23-9-25-6-2-12 4-13 14-2 36-7 88-9 93-5 10-12 66-14 103 0 20-4 37-8 37-3 0-9 23-12 51-4 29-20 78-37 110-16 32-30 72-30 89s-9 39-20 50c-15 15-18 27-13 51s3 31-8 27c-8-3-26 14-44 41-16 25-49 64-72 87-24 22-43 48-43 57s-4 17-10 17c-5 0-10 6-10 13 0 22-34 47-63 47-15 0-27 5-27 11 0 5-4 8-9 5s-11 0-14 8c-3 7-18 16-34 19-68 13-88 19-91 28-2 5-10 9-18 9s-14 5-14 10c0 13-37 13-45-1-5-7-15-5-32 6-20 14-27 14-41 3-15-12-16-11-3 5 8 9 10 21 6 25s-10 1-12-6c-3-6-8-10-12-8-17 11-61 14-67 5zm826-1184c0-8-4-15-10-15-5 0-10 7-10 15s5 15 10 15c6 0 10-7 10-15zm-482-123c-1-9 2-27 6-39 9-27 9-27-37-8-20 8-48 15-62 15s-25 5-25 12c0 6 2 9 6 6 3-3 26 5 52 17 51 25 61 24 60-3zm59-14c-3-8-6-5-6 6-1 11 2 17 5 13 3-3 4-12 1-19zm113-5 21-27-23-13c-13-7-33-12-45-13-21 0-21 1-8 34 8 18 11 36 8 40-4 3 1 6 10 6 8 0 25-12 37-27zm-192-46c18-9 35-11 43-6s19 9 24 9c6 0 3-5-5-10-14-9-12-11 20-14 11-1 14-11 13-38-2-28 2-38 12-38 9 0 15-10 15-24 0-25 30-43 50-31 6 3 7-1 4-9-4-11 0-16 15-16 12 0 21-5 21-11 0-7 10-9 25-7 30 6 31 1 8-25-17-18-17-19 0-32 9-6 17-17 17-24 0-6 5-19 11-29 9-15 7-26-12-56-23-35-27-37-66-33-60 6-67-1-49-54 21-58 21-76 1-59-8 6-20 8-26 4-9-5-7-11 6-21 15-10 16-13 4-13-22 0-41 44-26 60 9 10 9 11-2 5s-13-4-8 8c4 11-2 18-21 25-15 5-38 21-53 35-19 19-37 27-75 29l-49 3 41 22c50 27 60 55 38 114-9 24-16 53-16 65 1 12-16 37-42 61-30 28-43 49-43 67 0 28 11 35 20 12 3-7 15-16 27-19 20-5 20-4 7 11-8 9-20 28-27 41-12 24-12 24 28 19 23-3 54-13 70-21zm143-60c-13-13-31 0-24 19 4 11 8 12 20 3 9-8 10-16 4-22zm315-340c-4-16-15-26-32-30-23-4-25-2-18 22 4 14 6 39 5 54s4 37 10 49c11 21 13 19 27-24 8-26 12-58 8-71zm-1453-57c3-11 1-20-4-20s-9 9-9 20 2 20 4 20 6-9 9-20zm1423-57c-10-10-19 5-10 18 6 11 8 11 12 0 2-7 1-15-2-18zm-1069-783c22 0 53-29 53-49-1-14-2-14-14 2-7 9-19 17-25 17-16 0 30-59 47-59 6-1 12-8 12-16s6-15 14-15 18-4 21-10-1-7-9-4c-20 8-21-13-1-33 9-8 13-23 10-33-4-14-1-16 20-12 14 2 36-3 50-12s31-14 37-10-3 12-21 20c-27 11-31 17-26 42 4 23 0 31-21 42-24 13-25 15-7 28 10 7 30 11 45 8 19-4 27-1 25 6-1 7 14 15 33 19 19 3 31 7 25 8-24 4 34 25 74 27 56 3 93-10 85-31-4-9 0-15 10-15s13-6 10-15c-4-10 0-15 11-15 14 0 15-3 5-15-9-10-9-15-1-15 6 0 11-5 11-11s-6-9-14-6c-27 11-26-7 1-20 25-12 26-12 3-6-22 5-23 4-11-11 12-14 11-16-5-15-35 4-109-3-91-8 14-4 16-8 7-19-10-11-18-10-52 7-31 16-38 23-27 30 9 6 10 9 2 9-35 0-5-45 41-63 10-4 14-12 11-19-4-7 1-4 10 7s20 20 26 20c5 0 14 6 18 14 5 7 14 10 20 7 6-4 11-1 11 6 0 9 3 10 8 2 4-6 17-14 30-18 23-8 31-36 10-36-10 0-9-3 1-9 7-5 11-13 8-18s-2-15 3-22c10-18 60-6 60 14 0 8 4 15 9 15s12 14 16 30c4 17 10 28 14 26 4-3 15 13 25 34 13 31 23 40 42 40 29 0 29-3 7-26-13-13-14-19-5-22 18-6 15-30-5-35-14-4-13-5 3-6 26-1 39-28 23-47-8-10-8-14 0-14 18 0 13-52-6-66-10-7-19-17-19-23-1-6-2-15-3-21 0-5-8-7-16-4-11 5-13 2-9-10 4-9 0-18-9-22-9-3-13-12-10-20 4-10-2-17-16-21-11-3-18-9-15-15 3-5 1-15-5-21-12-15-4-57 11-57 6 0 6-5-1-14-15-18-3-46 21-46 10 0 16 5 13 10-3 6-4 10-1 10 2 0 11 2 19 5 8 4 14 0 14-9 0-8-4-13-9-10-4 3-8-4-8-15 0-12-5-21-11-21-5 0-8-4-5-9s-3-30-15-56c-11-25-23-58-25-71-6-35-57-161-98-242-18-37-36-79-40-94-3-15-17-39-31-54s-25-34-25-42c0-12-3-12-15-2-8 7-12 16-9 21s0 9-5 9c-16 0-13-16 4-30 8-7 12-16 9-21s-1-9 4-9 14 10 20 23c9 20 10 20 9 2 0-11 3-96 6-190 5-142 4-166-6-142-7 15-15 26-18 23-2-2-4 9-5 25s2 29 7 29c4 0 7 14 7 31-1 20-4 26-10 17-6-10-10-10-18 2-8 13-10 12-10-3 0-11-5-15-11-11-12 7-29-13-29-35 0-7 6-11 13-8 11 4 12-5 4-46-5-29-10-62-11-74-3-48-14-3-21 82-8 114-8 103 0 153 7 39 6 42-11 36-15-5-16-4-4 4 9 7 18 7 26 1 8-7 14-6 17 3 4 10 8 10 16-2 9-12 11-10 11 12 0 27 0 27-35 12-45-19-45-19-45 15 0 17-4 33-10 36-5 3-10 26-10 50 0 76-62 234-195 496-41 81-72 149-68 152 3 4 14 2 24-3 14-8 21-6 29 10 8 15 8 20-1 20-6 0-9 9-6 20 3 12 1 18-5 14s-8 1-4 14c8 24-20 38-41 20-12-10-14-9-11 7 2 15-5 21-27 26-16 4-24 7-17 8 6 0 12 6 12 12 0 7-10 9-25 7-14-3-28-1-31 3-3 5 0 9 6 9s8 5 5 11c-4 6-12 8-19 6-8-3-12 5-12 24 0 16 3 29 8 29 4 0 5 7 1 16-5 14-9 13-25-7-14-19-17-20-11-5 4 12 3 17-4 13-14-8-25 33-13 47 10 14 9 86-2 86-4 0-8 7-8 16 0 13 3 14 14 5 16-13 19-10 35 39 8 25 20 39 41 47 34 13 40 42 10 50-11 3-20 12-20 20 0 10 6 13 16 9 8-3 13-2 10 2-2 4-1 14 3 21 6 10 12 9 24-3 15-15 17-15 29 6 10 20 13 21 16 6 2-10 11-18 19-18zm673-40c-18-11-22-7-14 14 5 13 10 14 18 6s7-13-4-20zm40 20c0-5-5-10-11-10-5 0-7 5-4 10 3 6 8 10 11 10 2 0 4-4 4-10zm-605-50c3-5 2-10-4-10-5 0-13 5-16 10-3 6-2 10 4 10 5 0 13-4 16-10zm-90-501c11-16 1-19-13-3-7 8-8 14-3 14s13-5 16-11zm370-1079c32-82 35-174 6-190-28-15-41-12-41 8 0 14-2 15-10 2-29-46-52 85-27 152 8 24 19 58 22 76 9 43 18 34 50-48zm2635 40c-20-13-33-13-25 0 3 6 14 10 23 10 15 0 15-2 2-10zm163-37c-7-2-21-2-30 0-10 3-4 5 12 5 17 0 24-2 18-5zm-2054-260c-31-82 63-104 230-52 35 10 66 18 68 15 2-2-18-17-45-35-70-44-155-70-234-71-59 0-69 3-86 25-16 19-18 32-12 58 13 53 21 67 49 81 33 18 43 12 30-21z"/><path d="m3008 3963c6-2 9-10 6-15-4-7-2-8 5-4 13 9 5 26-12 25-9 0-8-2 1-6z"/><path d="m2658 2643c6-2 18-2 25 0 6 3 1 5-13 5s-19-2-12-5z"/><path d="m2460 2610c0-5 7-10 16-10 8 0 12 5 9 10-3 6-10 10-16 10-5 0-9-4-9-10z"/><path d="m2168 2593c6-2 18-2 25 0 6 3 1 5-13 5s-19-2-12-5z"/><path d="m2420 2480c8-5 20-10 25-10 6 0 3 5-5 10s-19 10-25 10c-5 0-3-5 5-10z"/><path d="m2710 2470c0-6 7-10 15-10s15 2 15 4-7 6-15 10c-8 3-15 1-15-4z"/><path d="m2570 2409c0-5 5-7 10-4 6 3 10 8 10 11 0 2-4 4-10 4-5 0-10-5-10-11z"/><path d="m2125 2400c3-5 8-10 11-10 2 0 4 5 4 10 0 6-5 10-11 10-5 0-7-4-4-10z"/><path d="m2580 2241c0-6 4-12 8-15 5-3 9 1 9 9s-4 15-9 15c-4 0-8-4-8-9z"/><path d="m2286 2115c4-8 11-15 16-15 6 0 5 6-2 15-7 8-14 15-16 15s-1-7 2-15z"/><path d="m2595 1480c-3-5 1-10 9-10 9 0 16 5 16 10 0 6-4 10-9 10-6 0-13-4-16-10z"/><path d="m2592 1420c0-19 2-27 5-17 2 9 2 25 0 35-3 9-5 1-5-18z"/><path d="m2652 1375c0-16 2-22 5-12 2 9 2 23 0 30-3 6-5-1-5-18z"/><path d="m2661 1324c0-11 3-14 6-6 3 7 2 16-1 19-3 4-6-2-5-13z"/><path d="m2635 1020c3-5 14-10 23-10 15 0 15 2 2 10-20 13-33 13-25 0z"/><path d="m2638 969c-7-19 6-56 15-42 4 6 3 21-1 34-6 16-10 18-14 8z"/><path d="m1805 5310c3-5 8-10 11-10 2 0 4 5 4 10 0 6-5 10-11 10-5 0-7-4-4-10z"/><path d="m1770 5300c0-5 5-10 11-10 5 0 7 5 4 10-3 6-8 10-11 10-2 0-4-4-4-10z"/><path d="m1690 5275c7-8 17-15 22-15s3 7-6 15c-8 8-18 15-22 15-3 0-1-7 6-15z"/><path d="m1730 5265c0-9 5-15 11-13s11 8 11 13-5 11-11 13-11-4-11-13z"/><path d="m3624 4890c0-129 2-182 3-117 2 64 2 170 0 235-1 64-3 11-3-118z"/><path d="m486 4998c-21-30-20-38 4-38 16 0 20 7 20 30 0 36-4 37-24 8z"/><path d="m3633 4545c0-38 2-53 4-32 2 20 2 52 0 70-2 17-4 1-4-38z"/><path d="m4590 4569c-41-16-92-37-114-46l-38-17 7-800c4-441 9-803 11-805 4-4 188 8 469 30 66 5 123 13 128 18 12 12 3 323-12 406-6 39-16 93-20 120-5 28-21 76-35 107s-32 90-40 130c-19 98-36 169-46 193-5 11-15 49-23 85-24 109-68 264-77 275-4 5-20 53-34 105-41 155-69 230-86 229-8-1-49-14-90-30z"/><path d="m3436 4582c-6-10-2-39 7-48 4-4 7 7 7 24 0 32-4 39-14 24z"/><path d="m3432 4459c-7-10-12-22-12-26 0-5 5 0 11 10 8 14 14 16 25 6 11-9 14-8 14 4 0 23-25 27-38 6z"/><path d="m4200 4422c-69-27-131-51-138-56-10-6-12-164-10-746 2-406 5-741 8-744 8-8 274 15 284 24 16 16 3 1571-13 1570-3-1-62-22-131-48z"/><path d="m2143 4385c-23-5-45-13-49-18-4-4-16-7-26-7s-18-4-18-10c0-5-11-12-24-16-35-9-55-45-61-110-7-82 33-112 62-46 7 15 33 38 58 52s48 33 51 43c5 15 12 17 32 12 33-8 145-16 117-9-36 10-43 27-8 21 18-4 35-2 38 3 4 7 13 6 26 0 22-12 24-4 9 34-5 14-15 26-21 26s-8-7-5-16c6-15 4-15-10-3s-14 14 3 27c15 12 15 14 1 9-9-3-22 1-28 9-16 19-50 18-79-3-14-9-21-11-17-5 10 17-5 19-51 7z"/><path d="m2330 4260c0-5 5-10 10-10 6 0 10 5 10 10 0 6-4 10-10 10-5 0-10-4-10-10z"/><path d="m3642 4250c0-14 2-19 5-12 2 6 2 18 0 25-3 6-5 1-5-13z"/><path d="m2370 4231c0-5 8-12 18-15 27-9 66-75 69-117 1-30-3-43-23-58-31-24-31-33 1-25 15 4 25 2 25-5 0-6 5-11 12-11 6 0 8 3 5 7-4 3 0 11 9 18 20 14 34 84 23 113-14 37-78 95-100 89-10-3-19-1-19 4s-4 9-10 9c-5 0-10-4-10-9z"/><path d="m3641 4194c0-11 3-14 6-6 3 7 2 16-1 19-3 4-6-2-5-13z"/><path d="m2239 4186c-2-2-24-6-49-7-48-3-98-27-143-68-35-32-60-78-47-86 5-3 6-13 3-22-5-13-1-15 23-9 16 4 34 8 39 9 6 1 10-1 10-4s6-13 13-21c10-13 10-17 0-22-16-8 116 2 139 11 15 5 14 3-2-10-11-9-15-17-9-17s17 7 24 15 9 15 4 15-2 5 6 10c10 6 11 10 3 10-20 0-15 20 5 20 9 1 31 7 47 15l30 15-33-6c-32-6-33-5-23 14 6 12 11 30 11 41 0 25 3 25 56 5 45-17 50-39 11-47-12-2 0-5 26-6 40-1 48 2 45 16-2 9-23 27-48 41-57 31-57 31-41 41 9 6 10 11 2 15-6 4-11 3-11-2 0-14-25-22-49-15-21 5-30 33-11 33 6 0 10 5 10 10 0 10-32 14-41 6zm11-25c0-13-6-19-17-19-10 1-30-1-45-5-28-7-47 6-26 19 7 4 28 11 48 15 19 4 36 7 38 8 1 0 2-8 2-18zm-126-36c-4-8-14-15-24-15s-25-10-34-22c-16-23-16-23-6-1 17 36 76 71 64 38zm136-24c0-5-7-12-16-15-24-9-28-7-14 9 14 17 30 20 30 6zm-100-35c5-13 14-27 19-31 6-3 11-10 11-15 0-12-59-1-82 15-17 11-16 13 3 33 26 28 37 28 49-2zm75-76c3-5 1-10-4-10-6 0-11 5-11 10 0 6 2 10 4 10 3 0 8-4 11-10zm-25-10c0-5-5-10-11-10-5 0-7 5-4 10 3 6 8 10 11 10 2 0 4-4 4-10z"/><path d="m2905 4170c-3-5 1-10 10-10s13 5 10 10c-3 6-8 10-10 10s-7-4-10-10z"/><path d="m2953 4165c0-8 4-12 9-9s6 10 3 15c-9 13-12 11-12-6z"/><path d="m2988 4173c7-3 16-2 19 1 4 3-2 6-13 5-11 0-14-3-6-6z"/><path d="m2700 3989c0-5 5-7 10-4 6 3 10 8 10 11 0 2-4 4-10 4-5 0-10-5-10-11z"/><path d="m2140 3938c-62-13-78-31-20-22 25 4 53 8 63 8 9 0 17 6 17 13 0 15 2 15-60 1z"/><path d="m3654 3720c0-113 2-159 3-102 2 56 2 148 0 205-1 56-3 10-3-103z"/><path d="m1833 3870c-15-17-31-41-34-53-7-28 0-57 14-57 5 0 16 8 24 18 12 15 14 12 11-25-2-24-3-43-1-43 1 0 13 11 27 24 21 19 26 32 26 74 0 40-4 52-17 55s-12 5 5 6c29 1 24 25-6 29-13 2-31-8-49-28z"/><path d="m3490 3860c0-5 5-10 11-10 5 0 7-5 3-11-10-16-13-89-4-89 5 0 15 20 23 44 14 41 14 46-2 60-20 18-31 20-31 6z"/><path d="m2390 3850c0-5 9-10 20-10s20 5 20 10c0 6-9 10-20 10s-20-4-20-10z"/><path d="m153 3718c3-18 9-94 12-168 4-74 13-184 20-245 8-60 19-168 25-240 12-137 25-200 46-225 15-18 16-44 9-185-2-55-2-93 1-85s8 22 10 30c5 13 6 13 15 0 8-13 10-13 19 0 13 20 12 46-6 235-8 88-19 214-24 280s-14 170-20 230c-5 61-13 138-16 172-3 35-10 66-16 69-7 4-6 9 1 14 9 5 9 14 1 35-6 15-8 36-5 45 3 10 3 29 0 42-5 19-14 24-42 26-35 3-35 2-30-30z"/><path d="m2295 3713c7-31 38-59 74-68 32-8 52 12 29 29-12 9-14 16-6 30 9 16 8 17-12 6-27-14-70-5-70 15 0 8-5 15-11 15-7 0-9-10-4-27z"/><path d="m2420 3708c0-4 6-8 13-8 8 0 39-8 70-19 32-10 57-17 57-16 0 2-12 11-27 21-30 19-113 36-113 22z"/><path d="m2715 3692c-27-9-42-18-33-20s36 6 60 17c53 24 40 25-27 3z"/><path d="m1830 3686c0-9 5-16 10-16 6 0 10 4 10 9 0 6-4 13-10 16-5 3-10-1-10-9z"/><path d="m2630 3660c-23-7-23-8-3-9 12-1 25 4 28 9 3 6 5 10 3 9s-14-5-28-9z"/><path d="m500 3649c0-5 10-9 22-9s18 3 14 7c-10 11-36 12-36 2z"/><path d="m1832 3615c-2-47 15-115 28-115 15 0 12 46-4 60-8 6-17 30-19 53l-4 42z"/><path d="m2389 3615c-1-5-1-15 0-22 1-6-12-21-29-33-16-12-30-17-30-11s-9 15-20 21c-15 8-18 8-14-3 3-9-4-13-22-12-27 0-48 25-22 25 11 0 11 2 0 9-8 4-14 12-13 17 1 21-47 0-85-37-41-40-71-104-53-115 5-3 10 5 10 18 1 16 3 14 8-10 3-18 9-33 14-32 4 0 7 1 6 3 0 1 4 15 10 30 8 19 8 34 1 47-7 14-6 23 6 34 8 9 18 16 22 16 3 0-1-7-10-16-15-15-15-18 4-38 16-17 18-29 13-63-5-36-3-43 10-43 9 0 14-3 11-8-5-8 63-106 70-100 2 3-5 23-16 46-11 22-20 44-20 47s33 5 73 4c41-1 82 3 93 9 19 11 19 11-1 13-11 1-26 2-32 2-7-1-24 10-37 22-14 13-33 25-43 28-17 4-17 5 0 6 9 0 17 5 17 9s17 8 38 9c71 1 126 21 144 53 14 24 14 30 3 30-19 0-28 17-14 26 8 5 9 3 4-6s-4-11 3-6c7 4 12 16 12 26 0 16-8 18-55 17-30-1-56-6-56-12zm-159-45c0-5-2-10-4-10-3 0-8 5-11 10-3 6-1 10 4 10 6 0 11-4 11-10zm10-30c0-5-2-10-4-10-3 0-8 5-11 10-3 6-1 10 4 10 6 0 11-4 11-10zm220-4c0-3-4-8-10-11-5-3-10-1-10 4 0 6 5 11 10 11 6 0 10-2 10-4z"/><path d="m2497 3536c-4-10 0-14 12-13 11 1 17 7 14 14-7 17-20 17-26-1z"/><path d="m3450 3530c0-11 4-20 9-20s7 9 4 20-7 20-9 20-4-9-4-20z"/><path d="m2558 3523c7-3 16-2 19 1 4 3-2 6-13 5-11 0-14-3-6-6z"/><path d="m3070 3432c0-8 7-20 15-29 9-8 19-12 22-9 4 4-3 16-15 29-13 13-22 16-22 9z"/><path d="m2885 3250c28-12 37-12 30 0-3 6-16 10-28 9-21 0-21-1-2-9z"/><path d="m2847 3230c3-11 7-20 9-20s4 9 4 20-4 20-9 20-7-9-4-20z"/><path d="m2930 3220c0-5 5-10 11-10 5 0 7 5 4 10-3 6-8 10-11 10-2 0-4-4-4-10z"/><path d="m2330 3150c0-5 5-10 10-10 6 0 10 5 10 10 0 6-4 10-10 10-5 0-10-4-10-10z"/><path d="m2324 3114c3-17 21-39 60-72 23-19 35-22 67-17 21 4 41 11 45 16 5 8 1 10-36 13-8 1-32 9-54 19-21 9-42 17-47 17s-9 6-9 14-6 16-14 19c-9 4-13 0-12-9z"/><path d="m2516 3059c3-5 13-9 22-10 14 0 13-2-3-8-17-7-16-8 8-13 19-4 35 1 50 13 26 21 26 21-35 24-26 1-45-1-42-6z"/><path d="m2626 3061c5-6 24-6 44-1l35 8-44 1c-28 1-41-3-35-8z"/><path d="m2075 3020c3-5 8-10 11-10 2 0 4 5 4 10 0 6-5 10-11 10-5 0-7-4-4-10z"/><path d="m3673 2850c0-25 2-35 4-22 2 12 2 32 0 45-2 12-4 2-4-23z"/><path d="m5560 2816c0-9 30-14 35-6 4 6-3 10-14 10-12 0-21-2-21-4z"/><path d="m3673 2760c0-25 2-35 4-22 2 12 2 32 0 45-2 12-4 2-4-23z"/><path d="m4890 2784c-18-4-456-24-660-30-80-3-151-6-157-9-15-5-17-124-6-298 6-104 7-107 30-107 12 0 23-4 23-10 0-5 7-10 15-10s15-7 15-15c0-17-30-35-60-35-33 0-18-24 16-26 16-1 92-4 169-8s203-11 280-16 186-12 243-15l102-6v25c0 14-5 46-12 70-11 42-9 53 31 173 42 127 90 226 116 240 7 5 20 25 28 46l16 37-87-1c-48-1-94-3-102-5z"/><path d="m3684 2485c0-60 1-84 3-52s2 81 0 110-3 3-3-58z"/><path d="m3546 2474c-4-10-1-14 6-12 15 5 23 28 10 28-5 0-13-7-16-16z"/><path d="m623 2473c9-2 23-2 30 0 6 3-1 5-18 5-16 0-22-2-12-5z"/><path d="m207 2373c-10-19 14-71 36-77 12-3 30-19 41-36 16-28 29-37 91-60 11-4 33-13 50-20 16-6 59-16 95-21s91-12 123-17c55-8 58-7 63 15 4 13 10 23 15 23 13 0 11 27-3 49-9 15-9 25 0 46 20 42 13 105-11 105-6 0-30-9-54-21l-43-21-144 21c-147 21-252 27-259 14z"/><path d="m5535 2299c-6-18-20-39-33-47-20-13-22-13-16 2 8 21 2 20-48-5-23-12-60-27-82-34l-41-13 43-1c25-1 42-6 42-13 0-6 3-8 7-5 3 4 11 3 18-3 6-5 48-12 93-16l82-7v67c0 58-2 66-18 66-11 0-23 9-28 21-9 19-10 18-19-12z"/><path d="m5402 2295c-57-31-61-35-29-35 17 0 40 12 59 30 37 36 28 37-30 5z"/><path d="m5198 2200c12-11 34-20 49-19l28 1-32 11c-17 7-35 15-39 20-4 4-12 7-18 7-5 0 0-9 12-20z"/><path d="m4938 1973c6-2 18-2 25 0 6 3 1 5-13 5s-19-2-12-5z"/><path d="m4462 1875c-36-20-12-27 108-31 112-5 146 5 82 24-55 16-112 22-112 11 0-5-12-9-26-9s-23 4-19 10c8 13-4 11-33-5z"/><path d="m4508 1763c7-3 16-2 19 1 4 3-2 6-13 5-11 0-14-3-6-6z"/><path d="m5070 1700c0-5 5-10 11-10 5 0 7 5 4 10-3 6-8 10-11 10-2 0-4-4-4-10z"/><path d="m1 1598c0-66 3-108 9-108 12 0 12 92 0 165-6 42-8 33-9-57z"/><path d="m5200 1680c-8-5-10-10-5-10 6 0 17 5 25 10s11 10 5 10c-5 0-17-5-25-10z"/><path d="m5248 1663c6-2 18-2 25 0 6 3 1 5-13 5s-19-2-12-5z"/><path d="m2 1380c0-14 2-19 5-12 2 6 2 18 0 25-3 6-5 1-5-13z"/><path d="m20 1196c0-8-6-16-12-19-7-2-10-8-6-12s14-2 23 5c17 14 20 40 5 40-5 0-10-6-10-14z"/><path d="m0 1111c0-29 0-29 39-19 28 7 38 14 34 25-4 10-14 12-36 7-20-4-27-3-23 5 4 6 2 11-3 11-6 0-11-13-11-29z"/><path d="m82 1088c-7-7-12-20-12-30 0-9-9-22-20-28s-24-19-30-30c-16-30 30-46 88-31 30 8 49 8 62 1 32-17 25 14-11 50-24 23-29 34-20 43 6 6 11 17 11 24 0 16-52 17-68 1z"/><path d="m200 1010c0-5 5-10 10-10 6 0 10 5 10 10 0 6-4 10-10 10-5 0-10-4-10-10z"/><path d="m2620 836c0-2 7-6 15-10 8-3 15-1 15 4 0 6-7 10-15 10s-15-2-15-4z"/><path d="m2670 830c0-5 7-7 15-4 8 4 15 8 15 10s-7 4-15 4-15-4-15-10z"/><path d="m130 810c0-5 5-10 10-10 6 0 10 5 10 10 0 6-4 10-10 10-5 0-10-4-10-10z"/><path d="m2662 403c-6-2-10-9-6-14 8-14 21-11 21 6 0 8-1 15-1 14-1 0-7-3-14-6z"/><path d="m2670 345c0-8 4-15 10-15 5 0 7 7 4 15-4 8-8 15-10 15s-4-7-4-15z"/><path d="m2660 299c0-5 5-7 10-4 6 3 10 8 10 11 0 2-4 4-10 4-5 0-10-5-10-11z"/><path d="m2658 273c7-3 16-2 19 1 4 3-2 6-13 5-11 0-14-3-6-6z"/><path d="m60 194c0-9 5-14 12-12 18 6 21 28 4 28-9 0-16-7-16-16z"/><path d="m5 191c-6-11 9-23 19-14 9 9 7 23-3 23-6 0-12-4-16-9z"/><path d="m2660 160c-13-8-12-10 3-10 9 0 17 5 17 10 0 12-1 12-20 0z"/><path d="m0 124c0-8 5-12 10-9 6 3 10 10 10 16 0 5-4 9-10 9-5 0-10-7-10-16z"/><path d="m2675 80c3-5 8-10 11-10 2 0 4 5 4 10 0 6-5 10-11 10-5 0-7-4-4-10z"/><path d="m90 50c0-5 5-10 10-10 6 0 10 5 10 10 0 6-4 10-10 10-5 0-10-4-10-10z"/></g></svg>